<?xml version="1.0" encoding="utf-8"?>
<!-- Generator: Adobe Illustrator 27.3.1, SVG Export Plug-In . SVG Version: 6.00 Build 0)  -->
<svg version="1.1" id="Capa_1" xmlns="http://www.w3.org/2000/svg" xmlns:xlink="http://www.w3.org/1999/xlink" x="0px" y="0px"
	 viewBox="0 0 24 24" style="enable-background:new 0 0 24 24;" xml:space="preserve">
<style type="text/css">
	.st0{fill:#FFFFFF;}
</style>
<path class="st0" d="M12,13c-0.83,0-1.54-0.29-2.12-0.88C9.29,11.54,9,10.83,9,10s0.29-1.54,0.88-2.13C10.46,7.29,11.17,7,12,7
	s1.54,0.29,2.12,0.88C14.71,8.46,15,9.17,15,10s-0.29,1.54-0.88,2.12C13.54,12.71,12.83,13,12,13z M6,23v-7.73
	c-0.63-0.7-1.12-1.5-1.47-2.4C4.18,11.97,4,11.02,4,10c0-2.23,0.78-4.13,2.33-5.68S9.77,2,12,2s4.12,0.77,5.68,2.33
	C19.23,5.87,20,7.77,20,10c0,1.02-0.17,1.97-0.52,2.88c-0.35,0.9-0.84,1.7-1.48,2.4V23l-6-2L6,23z M12,16
	c1.67,0,3.08-0.58,4.25-1.75S18,11.67,18,10s-0.58-3.08-1.75-4.25S13.67,4,12,4S8.92,4.58,7.75,5.75S6,8.33,6,10
	s0.58,3.08,1.75,4.25S10.33,16,12,16z M8,20.02L12,19l4,1.02v-3.1c-0.58,0.33-1.21,0.6-1.89,0.79C13.44,17.9,12.73,18,12,18
	s-1.44-0.1-2.11-0.29c-0.67-0.19-1.3-0.45-1.89-0.79V20.02z"/>
</svg>
