<?xml version="1.0" encoding="utf-8"?>
<!-- Generator: Adobe Illustrator 27.3.1, SVG Export Plug-In . SVG Version: 6.00 Build 0)  -->
<svg version="1.1" id="Capa_1" xmlns="http://www.w3.org/2000/svg" xmlns:xlink="http://www.w3.org/1999/xlink" x="0px" y="0px"
	 viewBox="0 0 24 24" style="enable-background:new 0 0 24 24;" xml:space="preserve">
<style type="text/css">
	.st0{fill:#FE0103;}
</style>
<path class="st0" d="M12,21l-1.45-1.3c-1.68-1.52-3.08-2.83-4.18-3.93s-1.97-2.09-2.62-2.96s-1.1-1.68-1.36-2.41S2,8.92,2,8.15
	c0-1.57,0.53-2.88,1.58-3.92S5.93,2.65,7.5,2.65c0.87,0,1.69,0.18,2.48,0.55S11.43,4.08,12,4.75c0.57-0.67,1.24-1.18,2.03-1.55
	s1.61-0.55,2.47-0.55c1.57,0,2.88,0.53,3.93,1.58C21.48,5.27,22,6.58,22,8.15c0,0.77-0.13,1.52-0.39,2.25
	c-0.26,0.73-0.71,1.54-1.36,2.41s-1.52,1.86-2.62,2.96s-2.49,2.41-4.18,3.93L12,21z M12,18.3c1.6-1.43,2.92-2.66,3.95-3.69
	s1.85-1.92,2.45-2.68c0.6-0.76,1.02-1.43,1.25-2.03C19.88,9.32,20,8.73,20,8.15c0-1-0.33-1.83-1-2.5c-0.67-0.67-1.5-1-2.5-1
	c-0.78,0-1.51,0.22-2.18,0.66c-0.67,0.44-1.12,1-1.38,1.69h-1.9c-0.25-0.68-0.71-1.25-1.38-1.69C9.01,4.87,8.28,4.65,7.5,4.65
	c-1,0-1.83,0.33-2.5,1s-1,1.5-1,2.5c0,0.58,0.12,1.17,0.35,1.76C4.58,10.5,5,11.18,5.6,11.94s1.42,1.65,2.45,2.68
	S10.4,16.87,12,18.3z"/>
</svg>
