<?xml version="1.0" encoding="utf-8"?>
<!-- Generator: Adobe Illustrator 27.3.1, SVG Export Plug-In . SVG Version: 6.00 Build 0)  -->
<svg version="1.1" id="Capa_1" xmlns="http://www.w3.org/2000/svg" xmlns:xlink="http://www.w3.org/1999/xlink" x="0px" y="0px"
	 viewBox="0 0 113.39 56.69" style="enable-background:new 0 0 113.39 56.69;" xml:space="preserve">
<style type="text/css">
	.st0{fill:#FFFFFF;}
	.st1{fill:#0B4499;}
	.st2{fill:#FD1A14;}
</style>
<g>
	<polygon class="st0" points="24.16,7.08 23.92,7.11 23.51,7.21 23.13,7.35 22.98,7.43 22.9,7.47 22.41,7.75 22.25,7.85 21.99,8.01 
		21.45,8.4 21.32,8.51 21.22,8.59 21.05,8.74 21,8.79 20.8,8.99 20.69,9.11 20.59,9.2 20.23,9.59 19.83,10.14 19.76,10.24 
		19.64,10.44 19.45,10.76 19.29,11.05 19.22,11.19 19.1,11.49 18.95,11.9 18.9,12.1 18.85,12.4 18.86,12.79 18.89,12.93 
		18.98,13.21 19.04,13.28 19.11,13.35 19.22,13.41 19.37,13.41 19.49,13.45 19.61,13.55 19.7,13.63 19.91,13.84 19.96,13.9 
		20.02,13.95 20.46,14.44 20.57,14.58 20.72,14.81 20.77,14.95 20.81,15.02 20.92,15.24 20.97,15.35 21.03,15.5 21.31,16.09 
		21.54,16.46 21.6,16.54 21.92,16.99 22.19,17.31 22.33,17.46 22.44,17.56 22.49,17.57 22.58,17.5 22.63,17.46 22.68,17.46 
		22.79,17.55 22.89,17.62 22.95,17.62 23.06,17.54 23.12,17.53 23.22,17.57 23.32,17.65 23.41,17.76 23.45,17.87 23.48,18.09 
		23.52,18.19 23.58,18.27 23.76,18.39 23.83,18.45 23.89,18.57 23.95,18.74 24.04,19.12 24.04,19.18 24.01,19.18 24,19.16 
		23.9,19.04 23.74,18.92 23.51,18.78 23.27,18.67 22.93,18.56 22.73,18.53 22.43,18.53 22.29,18.55 22.09,18.61 21.95,18.69 
		21.81,18.81 21.61,19.05 21.54,19.19 21.49,19.36 21.47,19.51 21.48,19.71 21.5,19.77 21.5,19.82 21.47,19.84 21.17,19.87 
		20.85,19.96 20.61,20.07 20.35,20.22 20.08,20.45 19.96,20.58 19.8,20.78 19.68,21 19.63,21.15 19.6,21.36 19.59,21.59 
		19.62,21.75 19.67,21.92 19.77,22.13 19.77,22.16 19.66,22.25 19.42,22.5 19.28,22.71 19.13,23.01 19.05,23.23 19.01,23.38 
		19.01,23.48 18.99,23.59 19,23.83 19.02,23.96 19.09,24.2 19.09,24.27 19.06,24.31 18.94,24.38 18.62,24.61 18.04,25.13 
		17.76,25.39 17.71,25.45 17.57,25.58 17.49,25.66 17.44,25.7 17.36,25.8 16.92,26.27 16.85,26.36 16.61,26.66 16.51,26.81 
		16.38,26.97 15.93,27.66 15.55,28.32 15.49,28.44 15.45,28.52 15.23,29.01 15.18,29.13 15.06,29.41 15.03,29.5 14.84,30.07 
		14.67,30.56 14.62,30.76 14.51,31.13 14.39,31.63 14.31,32.02 14.21,32.97 14.21,33.16 14.19,33.34 14.18,33.88 14.17,33.99 
		14.19,34.55 14.26,35.25 14.27,35.34 14.3,35.52 14.39,36.08 14.46,36.38 14.52,36.57 14.63,37.06 14.66,37.19 14.8,37.98 
		14.84,38.49 14.83,38.83 14.83,38.89 14.82,39.11 14.82,39.31 14.79,39.79 14.62,40.53 14.42,41.37 14.38,41.63 14.33,41.89 
		14.28,42.35 14.28,42.71 14.29,42.74 14.31,42.89 14.37,43.16 14.46,43.44 14.6,43.7 14.7,43.82 14.79,43.91 15.02,44.07 
		15.16,44.12 15.37,44.17 15.61,44.18 15.74,44.16 16,44.09 16.19,43.99 16.24,43.99 16.25,44.03 16.17,44.34 16.14,44.46 
		16.07,44.8 16.02,44.99 15.89,45.63 15.81,46.25 15.82,46.78 15.85,47 15.88,47.13 16,47.41 16.11,47.58 16.3,47.78 16.45,47.9 
		16.63,48 16.89,48.09 17.09,48.12 17.37,48.12 17.54,48.09 17.79,48.01 17.99,47.9 18.22,47.69 18.4,47.41 18.51,47.14 
		18.58,46.87 18.64,46.5 18.64,46.21 18.62,45.97 18.59,45.82 18.57,45.67 18.4,44.8 18.26,44.19 18.15,43.69 18.12,43.53 
		18.11,43.44 18,42.97 17.95,42.81 17.85,42.38 17.86,42.35 17.89,42.35 17.99,42.46 18.42,42.84 18.66,43.03 19.09,43.32 
		19.16,43.37 19.39,43.53 19.65,43.67 19.77,43.74 20.18,43.97 21.03,44.37 21.15,44.41 21.16,44.43 21.15,44.58 21.1,44.76 
		21.09,44.88 21.06,44.98 21.04,45.09 21.02,45.16 20.85,45.92 20.72,46.6 20.66,46.88 20.65,46.95 20.59,47.33 20.55,47.6 
		20.55,47.73 20.55,47.78 20.55,48.13 20.57,48.32 20.64,48.63 20.71,48.83 20.81,49 20.95,49.18 21.14,49.35 21.34,49.48 
		21.51,49.55 21.72,49.6 22.02,49.61 22.17,49.59 22.34,49.56 22.53,49.5 22.65,49.42 22.81,49.28 22.93,49.17 23.02,49.03 
		23.17,48.78 23.23,48.61 23.28,48.37 23.3,48.11 23.28,47.54 23.24,47.27 23.24,47.15 23.23,47.07 23.2,46.94 23.15,46.66 
		23.02,46.1 22.99,45.95 22.87,45.37 22.8,44.96 22.81,44.93 22.87,44.93 23.18,44.99 23.4,45.02 23.87,45.11 24.07,45.13 
		24.23,45.15 24.69,45.2 25.13,45.22 25.61,45.23 25.96,45.22 26.46,45.17 26.89,45.12 27.79,44.96 28.92,44.67 29.34,44.53 
		29.45,44.48 29.7,44.39 29.76,44.35 30.18,44.17 30.32,44.1 30.94,43.77 31.72,43.26 31.85,43.17 31.97,43.08 32.07,43 
		32.29,42.83 32.36,42.77 32.74,42.48 32.93,42.31 33.08,42.19 33.21,42.06 33.34,41.93 33.44,41.82 33.65,41.62 34.06,41.12 
		34.3,40.78 34.34,40.74 34.37,40.75 34.41,40.83 34.45,40.96 34.5,41.12 34.54,41.23 34.66,41.59 34.69,41.71 34.75,41.93 
		34.78,42.09 34.81,42.19 34.86,42.48 34.84,42.77 34.77,43.06 34.75,43.21 34.69,43.42 34.65,43.55 34.57,43.86 34.53,43.96 
		34.29,44.86 34.13,45.37 33.95,46.08 33.85,46.54 33.84,46.81 33.84,46.88 33.83,46.99 33.84,47.22 33.86,47.33 33.92,47.54 
		34.05,47.81 34.14,47.95 34.3,48.11 34.52,48.26 34.8,48.37 35,48.4 35.17,48.41 35.31,48.39 35.55,48.32 35.78,48.21 35.93,48.11 
		36.11,47.93 36.21,47.76 36.33,47.47 36.37,47.29 36.39,46.95 36.38,46.73 36.31,46.09 36.18,45.37 36.14,45.18 36.12,45.06 
		36,44.57 35.9,44.04 35.86,43.77 35.82,43.51 35.81,43.39 35.79,43.32 35.75,42.91 35.74,42.65 35.76,42.55 35.86,42.29 
		36.16,41.26 36.26,40.78 36.33,40.41 36.35,40.14 36.37,39.96 36.38,39.59 36.38,39.52 36.37,39.34 36.35,38.8 36.33,38.66 
		36.34,38.52 36.32,38.13 36.34,37.56 36.48,36.67 36.59,35.75 36.66,34.85 36.67,34.45 36.69,34.27 36.69,33.92 36.7,33.8 
		36.69,33.64 36.7,33.59 36.69,33.54 36.69,33.46 36.65,32.82 36.64,32.69 36.63,32.53 36.61,32.47 36.57,32.12 36.54,31.89 
		36.37,31.06 36.36,30.97 36.33,30.88 36.26,30.65 36.25,30.58 36.01,29.87 35.93,29.68 35.91,29.63 35.68,29.06 35.6,28.93 
		35.46,28.61 35.32,28.37 35.29,28.29 35.22,28.19 35.15,28.08 35.01,27.83 34.86,27.58 34.78,27.46 34.42,26.93 34.35,26.86 
		34.29,26.75 34.08,26.5 33.98,26.38 33.92,26.31 33.89,26.29 33.54,25.9 33.41,25.78 33.33,25.68 33.24,25.6 33.09,25.46 
		33.02,25.4 32.94,25.33 32.85,25.26 32.64,25.06 32.52,24.96 32.36,24.82 31.93,24.49 31.55,24.23 31.42,24.14 31.34,24.08 
		31.33,24.05 31.38,23.99 31.45,23.9 31.5,23.76 31.52,23.65 31.52,23.33 31.49,23.2 31.42,22.94 31.27,22.65 31.2,22.53 
		31.08,22.39 30.98,22.28 30.68,22.01 30.5,21.88 30.41,21.84 30.29,21.75 30.29,21.72 30.33,21.69 30.42,21.57 30.5,21.35 
		30.53,21.17 30.53,21.01 30.47,20.75 30.42,20.63 30.25,20.39 30.13,20.26 29.98,20.14 29.79,20.03 29.51,19.97 29.34,19.95 
		29.31,19.94 29.3,19.91 29.32,19.7 29.32,19.57 29.27,19.36 29.19,19.16 29,18.92 28.83,18.78 28.63,18.65 28.4,18.57 28.2,18.54 
		27.93,18.53 27.71,18.55 27.56,18.59 27.42,18.63 27.21,18.75 26.94,18.94 26.68,19.16 26.64,19.16 26.63,19.13 26.63,17.59 
		26.64,17.51 26.7,17.46 26.82,17.39 27.06,17.22 27.46,16.9 28.08,16.33 28.17,16.21 28.37,16.01 28.8,15.52 29.05,15.19 
		29.13,15.09 29.27,14.88 29.28,14.87 29.32,14.81 29.51,14.51 29.73,14.12 29.92,13.69 30.08,13.24 30.11,12.95 30.1,12.86 
		30.06,12.74 29.97,12.63 29.9,12.57 29.77,12.51 29.62,12.48 29.53,12.44 29.37,12.31 29.24,12.18 29.22,12.14 29.26,12.08 
		29.3,11.96 29.3,11.91 29.28,11.87 29.18,11.75 29.11,11.64 29.14,11.58 29.21,11.51 29.32,11.4 29.35,11.34 29.34,11.29 
		29.22,11.11 28.95,10.84 28.31,10.27 27.88,9.93 27.47,9.65 27.15,9.48 26.86,9.35 26.7,9.25 26.5,9.15 26.37,9.03 26.29,8.93 
		26.19,8.83 25.97,8.58 25.76,8.35 25.67,8.23 25.4,7.92 25.33,7.82 25.32,7.76 25.33,7.7 25.33,7.54 25.28,7.39 25.22,7.31 
		25.11,7.22 24.9,7.14 24.64,7.09 	"/>
	<polygon class="st1" points="24.16,7.5 23.82,7.57 23.38,7.71 22.84,7.96 22.36,8.25 22.1,8.42 21.84,8.61 21.61,8.8 21.15,9.2 
		20.89,9.47 20.84,9.52 20.49,9.94 20.22,10.28 19.98,10.64 19.72,11.09 19.51,11.48 19.38,11.79 19.31,12.01 19.25,12.35 
		19.24,12.49 19.27,12.72 19.32,12.88 19.38,12.99 19.46,13.03 19.61,13.06 19.7,13.09 19.81,13.16 20.31,13.68 20.75,14.14 
		21,14.43 21.08,14.55 21.28,15.11 21.46,15.51 21.61,15.81 21.95,16.34 22.32,16.83 22.56,17.08 22.65,17.13 22.71,17.14 
		22.76,17.12 22.89,17.02 22.95,17 22.99,17.02 23.12,17.15 23.2,17.21 23.27,17.22 23.39,17.18 23.46,17.19 23.53,17.24 
		23.7,17.42 23.81,17.56 23.86,17.63 23.88,17.77 23.91,17.92 23.97,18.03 24.07,18.11 24.15,18.17 24.22,18.27 24.28,18.43 
		24.38,18.83 24.45,19.27 24.53,19.9 24.61,20.33 24.63,20.53 24.61,20.57 24.58,20.53 24.47,20.33 24.31,20.07 24.02,19.7 
		23.85,19.52 23.61,19.32 23.46,19.21 23.22,19.09 22.95,18.99 22.78,18.96 22.54,18.96 22.44,18.98 22.3,19.03 22.13,19.13 
		22.03,19.24 21.94,19.36 21.89,19.49 21.87,19.61 21.87,19.75 21.91,19.9 21.98,20.06 22.05,20.17 22.07,20.21 22.05,20.23 
		21.81,20.24 21.58,20.25 21.26,20.3 20.94,20.39 20.73,20.48 20.51,20.62 20.39,20.73 20.25,20.89 20.16,21.03 20.08,21.24 
		20.04,21.41 20.05,21.6 20.07,21.7 20.13,21.83 20.25,22 20.37,22.1 20.38,22.14 20.36,22.18 20.2,22.29 19.9,22.57 19.75,22.75 
		19.6,23.01 19.5,23.23 19.44,23.51 19.43,23.71 19.47,23.98 19.53,24.16 19.63,24.34 19.64,24.39 19.61,24.43 19.34,24.62 
		19.1,24.79 18.56,25.21 18.18,25.55 18.09,25.64 17.67,26.06 17.57,26.18 17.49,26.25 17.16,26.65 16.75,27.19 16.39,27.73 
		16.19,28.06 15.87,28.65 15.6,29.22 15.32,29.9 15.17,30.34 14.99,30.96 14.86,31.5 14.75,32.1 14.66,32.76 14.64,33.03 
		14.63,33.12 14.61,33.46 14.61,33.75 14.6,33.82 14.6,34.32 14.64,34.97 14.76,35.87 14.91,36.51 15.08,37.17 15.11,37.33 
		15.18,37.76 15.2,38 15.22,38.14 15.24,38.62 15.23,39.35 15.19,39.75 15.17,39.81 15.14,40.06 15.09,40.38 14.9,41.14 
		14.74,41.94 14.7,42.28 14.7,42.67 14.74,42.97 14.83,43.22 14.95,43.42 15.05,43.53 15.19,43.64 15.32,43.7 15.46,43.74 
		15.64,43.75 15.79,43.72 15.93,43.66 16.09,43.56 16.23,43.42 16.33,43.28 16.4,43.15 16.48,42.94 16.52,42.73 16.53,42.52 
		16.52,42.11 16.46,41.7 16.23,40.66 16.14,40.06 16.09,39.63 16.08,39.48 16.1,39.45 16.14,39.49 16.3,39.73 16.38,39.86 
		16.83,40.49 17.02,40.73 17.11,40.86 17.56,41.37 17.85,41.69 18.23,42.07 18.58,42.38 19.17,42.83 19.62,43.13 20.35,43.57 
		21.02,43.89 21.49,44.08 21.6,44.14 21.62,44.19 21.57,44.6 21.39,45.49 21.16,46.61 21.03,47.44 20.98,47.9 20.98,48.14 
		21.01,48.29 21.07,48.5 21.16,48.69 21.29,48.87 21.44,49 21.58,49.08 21.76,49.14 21.95,49.16 22.14,49.15 22.31,49.09 
		22.44,49.02 22.57,48.9 22.69,48.75 22.8,48.52 22.85,48.28 22.86,48.06 22.85,47.58 22.8,47.27 22.75,46.92 22.38,45.08 
		22.32,44.69 22.3,44.57 22.29,44.41 22.3,44.38 22.33,44.36 22.84,44.49 23.64,44.66 24.43,44.75 24.6,44.76 24.9,44.78 
		25.83,44.79 26.41,44.74 27.13,44.65 27.8,44.52 28.25,44.4 28.81,44.24 29.37,44.04 29.97,43.79 30.49,43.52 30.99,43.22 
		31.56,42.85 32.01,42.51 32.32,42.25 32.71,41.91 32.87,41.77 33.41,41.22 33.61,40.99 33.99,40.51 34.38,39.98 34.52,39.74 
		34.56,39.69 34.57,39.69 34.59,39.71 34.62,40.01 34.95,41.18 35.1,41.76 35.19,42.26 35.23,42.41 35.27,42.45 35.33,42.45 
		35.36,42.42 35.43,42.21 35.57,41.78 35.7,41.35 35.73,41.25 35.81,40.85 35.87,40.5 35.94,39.88 35.96,39.82 35.95,39.75 
		35.96,39.54 35.94,39.3 35.95,39.25 35.93,39.08 35.9,38.71 35.9,37.91 35.91,37.84 35.9,37.72 35.93,37.31 36.01,36.83 
		36.05,36.6 36.11,36.24 36.15,35.99 36.21,35.41 36.26,34.39 36.27,33.63 36.22,32.93 36.16,32.33 36.04,31.55 35.93,31.08 
		35.9,30.97 35.76,30.49 35.74,30.41 35.66,30.18 35.62,30.07 35.45,29.61 35.11,28.87 34.63,28.03 34.29,27.49 34.02,27.12 
		33.74,26.76 33.48,26.46 33.1,26.04 32.65,25.61 32.49,25.47 32.24,25.26 31.82,24.94 30.85,24.27 30.84,24.23 30.85,24.18 
		30.95,24.03 31.03,23.84 31.06,23.65 31.07,23.46 31.05,23.31 31,23.11 30.9,22.9 30.76,22.7 30.47,22.4 30.1,22.11 29.89,21.99 
		29.77,21.93 29.6,21.86 29.58,21.83 29.59,21.81 29.72,21.73 29.86,21.62 29.96,21.49 30.01,21.37 30.05,21.21 30.04,21.06 
		30.01,20.91 29.93,20.74 29.85,20.61 29.7,20.47 29.57,20.39 29.32,20.29 29.08,20.25 28.8,20.25 28.77,20.23 28.77,20.21 
		28.85,20.08 28.9,19.96 28.93,19.82 28.92,19.64 28.86,19.48 28.79,19.34 28.65,19.19 28.52,19.1 28.36,19.02 28.22,18.99 
		27.97,18.97 27.79,19 27.55,19.08 27.37,19.16 27.15,19.3 26.98,19.44 26.92,19.48 26.7,19.72 26.52,19.95 26.41,20.11 
		26.32,20.27 26.24,20.42 26.17,20.53 26.15,20.53 26.14,20.51 26.18,19.5 26.18,19.14 26.21,17.4 26.23,17.32 26.28,17.25 
		26.73,16.93 27.24,16.52 27.34,16.43 27.44,16.35 27.87,15.94 28.18,15.6 28.49,15.24 28.82,14.8 29.07,14.44 29.32,14.02 
		29.51,13.66 29.6,13.42 29.64,13.26 29.65,13.12 29.63,12.99 29.6,12.9 29.51,12.77 29.43,12.73 29.28,12.7 29.16,12.63 
		29.05,12.54 28.85,12.33 28.8,12.24 28.8,12.2 28.86,12.08 28.87,12.01 28.83,11.92 28.71,11.75 28.65,11.67 28.64,11.61 
		28.74,11.49 28.78,11.42 28.78,11.36 28.75,11.29 28.58,11.08 28.11,10.62 27.74,10.33 27.35,10.06 27.11,9.91 26.79,9.76 
		26.47,9.64 26.36,9.57 26.15,9.35 25.68,8.84 25.47,8.62 25.04,8.13 24.97,8.04 24.96,7.97 24.98,7.83 24.96,7.7 24.92,7.64 
		24.83,7.57 24.67,7.52 24.43,7.49 	"/>
	<polygon class="st2" points="22,48.68 21.87,48.68 21.71,48.63 21.6,48.56 21.5,48.44 21.42,48.27 21.37,48.04 21.36,47.85 
		21.4,47.38 21.47,46.97 21.54,46.62 21.55,46.53 21.65,46 21.77,45.31 21.79,45.2 21.83,44.99 21.92,44.47 21.94,44.45 
		21.96,44.49 22.01,44.82 22.09,45.38 22.33,46.67 22.37,46.88 22.43,47.3 22.47,47.67 22.48,47.96 22.44,48.22 22.38,48.4 
		22.3,48.52 22.2,48.61 22.07,48.67 	"/>
	<polygon class="st1" points="35.15,47.97 34.94,47.94 34.78,47.9 34.65,47.81 34.51,47.69 34.4,47.52 34.34,47.37 34.29,47.2 
		34.28,46.95 34.28,46.88 34.28,46.83 34.31,46.49 34.43,45.91 34.57,45.39 34.65,45.14 34.75,44.77 34.97,44.02 35.14,43.24 
		35.23,42.73 35.25,42.68 35.29,42.67 35.32,42.67 35.35,42.71 35.37,42.84 35.39,43.09 35.42,43.48 35.46,43.82 35.48,43.99 
		35.57,44.52 35.6,44.72 35.73,45.31 35.9,46.19 35.95,46.61 35.96,46.93 35.94,47.19 35.89,47.37 35.8,47.55 35.71,47.67 
		35.61,47.79 35.5,47.87 35.37,47.93 35.23,47.97 	"/>
	<polygon class="st1" points="17.3,47.65 17.07,47.65 16.88,47.6 16.7,47.51 16.58,47.42 16.47,47.31 16.36,47.13 16.3,46.97 
		16.25,46.78 16.23,46.49 16.23,46.26 16.29,45.8 16.43,45.11 16.57,44.49 16.69,44.05 16.76,43.7 16.81,43.48 16.87,43.2 
		17.05,42.33 17.17,41.54 17.19,41.38 17.22,41.33 17.25,41.32 17.28,41.33 17.3,41.4 17.36,41.89 17.49,42.66 17.75,43.89 
		17.87,44.38 17.88,44.44 17.93,44.67 18.02,45.12 18.07,45.4 18.15,45.95 18.17,46.32 18.16,46.62 18.11,46.87 18.03,47.09 
		17.97,47.22 17.86,47.36 17.79,47.44 17.75,47.47 17.56,47.58 17.4,47.64 	"/>
	<polygon class="st2" points="35.15,47.52 35.01,47.51 34.92,47.47 34.81,47.37 34.75,47.28 34.69,47.12 34.66,46.97 34.66,46.68 
		34.7,46.42 34.73,46.27 34.76,46.06 34.92,45.39 35.06,44.88 35.2,44.24 35.22,44.22 35.25,44.33 35.31,44.78 35.4,45.51 
		35.46,45.82 35.56,46.61 35.57,46.81 35.56,46.86 35.56,46.94 35.53,47.1 35.48,47.25 35.39,47.38 35.28,47.46 	"/>
	<polygon class="st2" points="17.19,47.18 17.06,47.17 16.95,47.14 16.84,47.07 16.73,46.96 16.66,46.83 16.6,46.65 16.58,46.53 
		16.57,46.31 16.63,45.89 16.77,45.23 17.01,44.33 17.28,43.1 17.29,43.08 17.31,43.14 17.36,43.63 17.44,44.08 17.46,44.24 
		17.6,45 17.65,45.35 17.68,45.56 17.72,45.97 17.72,46.36 17.66,46.68 17.61,46.82 17.53,46.97 17.42,47.08 17.3,47.15 	"/>
	<polygon class="st0" points="25.98,44.47 25.87,44.46 25.65,44.39 25.58,44.34 25.53,44.26 25.5,44.16 25.45,44.03 25.39,43.98 
		25.31,43.94 25.27,43.87 25.24,43.6 25.23,43.34 25.2,43.07 25.22,43.03 25.31,43 25.42,42.99 25.57,42.99 25.6,43 25.55,43.12 
		25.56,43.32 25.58,43.38 25.68,43.51 25.75,43.55 25.84,43.56 25.9,43.53 26,43.43 26.05,43.41 26.17,43.38 26.19,43.39 
		26.19,43.45 26.19,43.51 26.23,43.62 26.27,43.71 26.26,43.8 26.26,43.86 26.28,43.96 26.35,44.06 26.36,44.13 26.32,44.24 
		26.25,44.34 26.21,44.4 26.15,44.43 26.03,44.46 	"/>
	<polygon class="st0" points="24.48,43.99 24.42,44.03 24.36,44.14 24.3,44.21 24.19,44.27 23.87,44.38 23.81,44.42 23.83,44.43 
		23.93,44.44 24.02,44.46 24.11,44.47 24.41,44.33 24.46,44.27 24.49,44.13 24.53,44.09 24.66,44.05 24.7,44.03 24.7,44 
		24.69,43.98 24.6,43.98 	"/>
	<polygon class="st0" points="24.84,43.03 24.81,43.05 24.79,43.11 24.76,43.24 24.76,43.32 24.77,43.44 24.75,43.66 24.75,43.81 
		24.77,43.88 24.83,43.88 25.05,43.83 25.08,43.81 25.11,43.76 25.1,43.47 25.06,43.13 25.04,43.05 25,43.03 	"/>
	<polygon class="st2" points="27.56,43.48 27.45,43.47 27.34,43.42 27.23,43.32 27.17,43.22 27.09,43.01 27.05,42.74 27.04,42.5 
		27.08,42.05 27.16,41.63 27.2,41.5 27.21,41.44 27.24,41.3 27.32,40.96 27.35,40.83 27.49,40.17 27.54,39.89 27.55,39.89 
		27.57,39.97 27.62,40.26 27.7,40.66 27.79,41.06 27.86,41.28 27.94,41.61 28.02,42.06 28.05,42.37 28.04,42.78 28,43 27.92,43.2 
		27.84,43.32 27.74,43.4 27.63,43.46 	"/>
	<polygon class="st2" points="15.67,43.23 15.57,43.22 15.48,43.19 15.35,43.09 15.26,42.96 15.2,42.82 15.15,42.61 15.13,42.38 
		15.14,42.09 15.2,41.63 15.38,40.81 15.47,40.35 15.49,40.24 15.54,39.91 15.56,39.72 15.58,39.62 15.62,39.2 15.62,38.48 
		15.57,38.01 15.46,37.31 15.31,36.46 15.24,36.06 15.06,34.84 15.02,34.3 15.05,33.13 15.2,31.97 15.32,31.38 15.44,30.91 
		15.63,30.32 15.84,29.73 16.18,28.97 16.52,28.33 16.97,27.61 17.26,27.21 17.65,26.73 18.07,26.27 18.51,25.82 18.99,25.41 
		19.37,25.13 19.76,24.86 19.92,24.77 19.96,24.72 20.01,24.71 20.07,24.69 20.15,24.7 20.32,24.73 20.51,24.73 20.67,24.69 
		20.84,24.62 21.01,24.51 21.17,24.38 21.25,24.31 21.29,24.32 21.33,24.37 21.4,24.47 21.48,24.54 21.6,24.62 21.75,24.67 
		21.81,24.68 22.03,24.67 22.18,24.63 22.3,24.56 22.45,24.44 22.72,24.15 23.14,23.65 23.28,23.53 23.41,23.45 23.55,23.4 
		23.68,23.36 23.7,23.32 23.69,23.28 23.61,23.25 23.52,23.24 23.35,23.27 23.19,23.33 23.04,23.42 22.89,23.54 22.53,23.92 
		22.42,24.04 22.26,24.16 22.15,24.2 22.02,24.21 21.88,24.18 21.8,24.13 21.74,24.06 21.7,23.92 21.7,23.81 21.74,23.61 
		21.85,23.39 22,23.22 22.15,23.08 22.33,22.95 22.53,22.84 22.83,22.74 23.06,22.69 23.42,22.67 23.77,22.71 24.01,22.77 
		24.41,22.93 24.59,23.03 24.84,23.23 24.91,23.32 24.97,23.42 25,23.43 25.05,23.42 25.07,23.38 25.09,23.26 25.09,22.31 
		25.06,21.53 25.02,20.99 25,20.8 24.97,20.32 24.94,20.07 24.85,19.19 24.78,18.68 24.72,18.42 24.63,18.14 24.55,17.99 
		24.42,17.84 24.37,17.73 24.36,17.69 24.36,17.55 24.44,17.25 24.59,16.88 24.8,16.52 25.09,16.08 25.39,15.7 25.75,15.3 
		26.23,14.81 26.4,14.65 26.63,14.44 27.03,14.12 27.51,13.76 28.04,13.43 28.38,13.25 28.6,13.15 28.81,13.09 28.98,13.08 
		29.07,13.12 29.14,13.2 29.16,13.3 29.12,13.51 28.98,13.81 28.59,14.41 28.4,14.67 28.3,14.79 28.08,15.06 27.66,15.53 
		27.22,15.97 26.53,16.55 26.12,16.86 25.93,17.04 25.85,17.17 25.81,17.27 25.8,17.38 25.81,18.78 25.83,19.21 25.83,19.27 
		25.83,19.38 25.83,20.33 25.81,21.57 25.8,21.71 25.76,22.52 25.72,23.23 25.74,23.29 25.77,23.31 25.82,23.31 26.13,23.09 
		26.28,23.01 26.51,22.92 26.71,22.87 26.81,22.85 27.08,22.86 27.24,22.9 27.37,22.95 27.53,23.05 27.64,23.16 27.74,23.33 
		27.79,23.47 27.8,23.61 27.77,23.78 27.71,23.92 27.61,24.04 27.42,24.15 27.28,24.21 27.24,24.25 27.26,24.29 27.3,24.32 
		27.41,24.33 27.59,24.3 27.75,24.24 27.88,24.15 28.01,24 28.09,23.85 28.15,23.67 28.16,23.53 28.14,23.36 28.1,23.25 
		28.03,23.11 28.01,23.07 28.06,23.07 28.25,23.2 28.36,23.28 28.58,23.46 28.7,23.57 29.03,23.89 29.2,24.05 29.47,24.27 
		29.7,24.42 29.87,24.51 29.99,24.54 30.18,24.55 30.36,24.54 30.43,24.56 30.8,24.77 31.2,25.03 31.79,25.45 32.32,25.89 
		32.42,25.99 32.76,26.31 32.82,26.38 33.05,26.61 33.39,27.01 33.45,27.1 33.55,27.22 33.83,27.59 33.89,27.67 34.33,28.34 
		34.5,28.62 34.75,29.09 34.92,29.46 34.94,29.53 35.09,29.89 35.3,30.48 35.48,31.11 35.56,31.39 35.65,31.89 35.75,32.56 35.8,33 
		35.8,33.08 35.82,33.33 35.82,33.5 35.8,33.56 35.83,33.69 35.84,34.51 35.84,34.79 35.83,35.16 35.79,35.45 35.78,35.69 
		35.77,35.73 35.75,35.94 35.72,36.24 35.59,37.02 35.53,37.69 35.5,37.87 35.51,38.73 35.53,39.61 35.52,40 35.49,40.26 
		35.38,40.83 35.33,40.95 35.31,40.95 35.28,40.89 35.14,40.47 35,40.06 34.91,39.71 34.87,39.24 34.88,38.33 34.86,37.93 
		34.77,37.26 34.67,36.78 34.63,36.64 34.59,36.3 34.6,35.84 34.63,35.53 34.66,35.34 34.67,35.04 34.64,34.84 34.56,34.57 
		34.48,34.42 34.39,34.28 34.27,34.15 34.16,34.08 34.04,34.04 33.92,34.04 33.8,34.08 33.68,34.17 33.58,34.29 33.5,34.42 
		33.4,34.71 33.35,34.95 33.29,35.41 33.2,35.71 33.13,35.92 33.04,36.38 33.02,36.65 33.03,36.86 33.05,37.01 33.07,37.17 
		33.12,37.42 33.17,37.6 33.2,37.72 33.34,38.34 33.37,38.67 33.36,38.82 33.3,39 33.23,39.14 33.15,39.23 33.06,39.29 33,39.3 
		32.91,39.3 32.84,39.27 32.75,39.21 32.68,39.12 32.61,39 32.57,38.82 32.56,38.61 32.58,38.41 32.62,38.11 32.8,37.29 
		32.89,36.94 32.94,36.63 32.95,36.37 32.91,36.18 32.85,35.97 32.75,35.75 32.57,35.48 32.35,35.2 32.11,34.98 31.79,34.75 
		31.38,34.5 31.13,34.29 31,34.14 30.87,33.96 30.69,33.66 30.43,33.3 30.22,33.08 30.03,32.96 29.88,32.9 29.71,32.85 29.57,32.83 
		29.37,32.84 29.13,32.9 28.99,32.96 28.82,33.08 28.7,33.2 28.59,33.37 28.52,33.51 28.45,33.65 28.37,33.95 28.3,34.42 
		28.27,35.05 28.28,35.13 28.26,35.62 28.21,36.06 28.13,36.4 28.01,36.76 27.88,37.08 27.76,37.35 27.63,37.77 27.56,38.08 
		27.53,38.2 27.52,38.19 27.41,37.79 27.24,37.38 27.07,37.02 26.86,36.63 26.74,36.41 26.56,36.08 26.45,35.82 26.34,35.48 
		26.23,34.95 26.08,34.14 25.98,33.75 25.88,33.5 25.79,33.34 25.69,33.21 25.66,33.19 25.6,33.13 25.51,33.08 25.41,33.05 
		25.27,33.05 25.16,33.1 25.06,33.17 24.97,33.3 24.86,33.54 24.73,33.87 24.63,34.05 24.49,34.23 24.09,34.61 23.97,34.78 
		23.89,34.93 23.84,35.13 23.81,35.28 23.79,35.77 23.83,36.33 24.02,37.43 24.04,37.82 24.03,37.97 23.99,38.11 23.92,38.22 
		23.85,38.27 23.76,38.31 23.68,38.3 23.62,38.27 23.55,38.2 23.5,38.11 23.47,38 23.45,37.86 23.46,37.53 23.52,37.22 23.66,36.58 
		23.73,36.21 23.75,35.92 23.71,35.62 23.64,35.32 23.52,34.97 23.45,34.71 23.4,34.35 23.37,34.07 23.32,33.86 23.24,33.64 
		23.12,33.44 22.99,33.29 22.85,33.17 22.73,33.11 22.59,33.08 22.53,33.07 22.35,33.08 22.2,33.12 22.03,33.2 21.84,33.34 
		21.54,33.6 21.32,33.75 21.13,33.84 20.84,33.94 20.36,34.05 20.14,34.13 19.98,34.24 19.78,34.44 19.65,34.63 19.56,34.8 19.5,35 
		19.45,35.24 19.43,35.6 19.44,35.86 19.44,36.34 19.39,36.75 19.33,36.94 19.01,37.69 18.9,38.06 18.88,38.07 18.86,37.97 
		18.82,37.77 18.67,37.32 18.58,37.11 18.47,36.79 18.4,36.46 18.36,36.15 18.32,35.46 18.29,35.25 18.24,35.16 18.17,35.08 
		18.1,35.06 18.03,35.07 17.96,35.11 17.9,35.17 17.83,35.31 17.77,35.53 17.67,36.18 17.6,36.45 17.48,36.71 17.43,36.83 
		17.32,37.13 17.27,37.33 17.25,37.4 17.22,37.44 17.16,37.44 17.12,37.4 17.08,37.3 17.02,37.05 16.83,36.57 16.78,36.39 
		16.73,35.98 16.72,35.61 16.69,35.53 16.65,35.47 16.59,35.45 16.51,35.47 16.46,35.54 16.42,35.62 16.35,35.85 16.31,36.2 
		16.29,36.42 16.26,36.63 16.07,37.42 15.9,38.04 15.8,38.59 15.74,39 15.72,39.38 15.74,39.75 15.79,40.15 15.8,40.19 15.81,40.32 
		15.96,41.16 16.08,41.82 16.13,42.28 16.12,42.53 16.08,42.75 16.01,42.96 15.93,43.08 15.9,43.11 15.8,43.19 	"/>
	<polygon class="st0" points="25.85,42.97 25.85,42.99 25.9,42.99 25.91,42.98 25.9,42.97 	"/>
	<polygon class="st0" points="24.81,42.91 24.64,42.91 24.6,42.89 24.52,42.75 24.48,42.65 24.45,42.38 24.46,42.2 24.44,42.15 
		24.4,42.13 24.25,42.1 24.19,42.06 24.1,41.91 24.07,41.8 24.08,41.72 24.11,41.68 24.17,41.63 24.18,41.57 24.13,41.43 
		24.15,41.4 24.24,41.37 24.48,41.34 24.53,41.31 24.55,41.26 24.53,41.22 24.5,41.2 24.34,41.21 24.17,41.23 24.11,41.22 
		24.08,41.16 24.09,41.07 24.1,41.04 24.14,41.04 24.24,41.05 24.32,41.01 24.41,40.94 24.53,40.78 24.54,40.74 24.53,40.66 
		24.47,40.46 24.35,40.19 24.27,40.07 24.21,39.96 24.12,39.83 24.1,39.77 24.11,39.65 24.12,39.59 24.12,39.51 24.07,39.43 
		23.99,39.32 23.8,39.13 23.71,39.04 23.58,38.91 23.54,38.9 23.41,38.9 23.35,38.87 23.29,38.86 23.2,38.88 23.1,38.84 
		22.95,38.77 22.75,38.71 22.72,38.68 22.72,38.65 22.77,38.62 23.13,38.52 23.18,38.48 23.18,38.43 23.15,38.39 23.09,38.38 
		22.66,38.5 22.6,38.51 22.55,38.48 22.49,38.43 22.43,38.4 22.34,38.41 22.2,38.45 22.06,38.46 21.87,38.45 21.74,38.49 
		21.57,38.57 21.36,38.62 21.22,38.67 21.19,38.71 21.16,38.81 21.11,38.84 20.96,38.88 20.93,38.89 20.91,38.99 20.86,39.05 
		20.85,39.12 20.85,39.16 20.82,39.21 20.65,39.28 20.59,39.34 20.49,39.5 20.38,39.59 20.11,39.79 20.02,39.89 19.95,40.02 
		19.87,40.19 19.83,40.29 19.75,40.42 19.73,40.46 19.74,40.53 19.8,40.65 19.83,40.74 19.9,40.82 19.93,40.9 19.92,40.93 
		19.89,40.95 19.76,40.92 19.56,40.87 19.47,40.86 19.43,40.88 19.41,40.92 19.42,40.96 19.53,41 19.88,41.11 19.91,41.14 
		19.92,41.19 19.92,41.27 19.93,41.31 19.99,41.38 19.99,41.43 19.94,41.47 19.75,41.57 19.69,41.62 19.65,41.74 19.63,41.83 
		19.6,41.86 19.54,41.85 19.36,41.76 18.75,41.42 18.12,41.01 17.77,40.76 17.49,40.53 17.47,40.47 17.47,40.39 17.51,40.28 
		17.55,40.26 17.6,40.27 18.01,40.45 18.07,40.45 18.1,40.41 18.09,40.35 18.06,40.31 17.61,40.09 17.56,40.04 17.55,40.02 
		17.56,39.64 17.54,39.37 17.56,39.32 17.6,39.3 17.73,39.3 17.87,39.3 18.21,39.27 18.25,39.26 18.28,39.21 18.28,39.17 
		18.24,39.15 18.16,39.14 17.56,39.16 17.52,39.14 17.49,39.1 17.41,38.82 17.32,38.6 17.31,38.57 17.33,38.53 17.46,38.44 
		18.36,37.93 18.43,37.86 18.44,37.82 18.42,37.79 18.37,37.79 18.22,37.86 17.5,38.29 17.3,38.39 17.25,38.4 17.2,38.38 
		17.12,38.24 16.91,37.98 16.66,37.76 16.47,37.61 16.46,37.58 16.48,37.4 16.54,37.02 16.56,36.85 16.59,36.8 16.6,36.82 
		16.72,37.33 16.82,37.59 16.97,37.88 17.12,38.07 17.24,38.2 17.28,38.22 17.31,38.22 17.35,38.05 17.44,37.88 17.54,37.61 
		17.63,37.28 17.73,37.07 17.8,36.94 17.94,36.59 17.99,36.34 18.03,36.09 18.05,36.06 18.07,36.08 18.11,36.27 18.13,36.46 
		18.21,36.87 18.36,37.32 18.45,37.52 18.51,37.75 18.55,38.03 18.56,38.33 18.55,38.52 18.48,38.91 18.27,39.65 18.19,40.16 
		18.19,40.33 18.21,40.51 18.26,40.68 18.33,40.83 18.42,40.94 18.53,41.03 18.65,41.09 18.74,41.11 18.91,41.11 19.04,41.06 
		19.17,40.98 19.27,40.87 19.35,40.75 19.42,40.56 19.46,40.36 19.46,40.12 19.43,39.77 19.24,38.72 19.22,38.6 19.23,38.3 
		19.3,37.99 19.44,37.65 19.61,37.29 19.76,36.88 19.83,36.58 19.88,36.22 19.89,35.85 19.88,35.73 19.88,35.43 19.92,35.24 
		19.96,35.08 20.02,34.96 20.13,34.83 20.24,34.72 20.43,34.61 20.74,34.49 21.1,34.38 21.4,34.24 21.62,34.09 22.03,33.78 
		22.24,33.65 22.39,33.59 22.5,33.57 22.61,33.58 22.74,33.63 22.8,33.67 22.88,33.79 22.93,33.93 23.04,34.61 23.15,34.92 
		23.31,35.26 23.35,35.41 23.39,35.69 23.39,35.92 23.35,36.25 23.25,36.75 23.19,36.94 23.1,37.3 23.07,37.56 23.07,37.9 
		23.11,38.12 23.19,38.32 23.27,38.46 23.38,38.58 23.52,38.68 23.64,38.73 23.73,38.75 23.89,38.74 24.06,38.69 24.16,38.63 
		24.27,38.53 24.36,38.4 24.43,38.24 24.48,38.04 24.5,37.9 24.49,37.63 24.43,37.2 24.18,36.06 24.17,35.95 24.17,35.59 
		24.21,35.39 24.25,35.27 24.33,35.14 24.43,35.04 24.74,34.79 24.89,34.65 25.01,34.47 25.08,34.33 25.16,34.07 25.24,33.95 
		25.29,33.9 25.35,33.89 25.42,33.92 25.5,34 25.6,34.15 25.7,34.38 25.8,34.77 25.89,35.19 25.94,35.46 26.03,35.77 26.15,36.07 
		26.27,36.33 26.32,36.41 26.42,36.61 26.71,37.14 27.03,37.83 27.15,38.19 27.26,38.66 27.3,38.97 27.31,39.26 27.28,39.41 
		27.25,39.43 27.19,39.43 27.09,39.38 27.02,39.31 26.99,39.25 26.96,39.12 26.91,39.05 26.84,39.02 26.78,39.03 26.6,39.14 
		26.49,39.25 26.36,39.32 26.09,39.42 25.94,39.52 25.84,39.54 25.73,39.53 25.67,39.51 25.63,39.46 25.57,39.32 25.57,39.17 
		25.6,39.02 25.58,38.95 25.47,38.85 25.4,38.82 25.33,38.81 25.17,38.82 25.02,38.79 24.92,38.8 24.6,38.92 24.47,38.91 
		24.43,38.94 24.4,38.98 24.37,38.98 24.32,38.86 24.26,38.72 24.24,38.69 24.18,38.68 24.14,38.71 24.13,38.77 24.27,39.2 
		24.28,39.29 24.27,39.36 24.17,39.48 24.16,39.54 24.18,39.58 24.28,39.66 24.37,39.7 24.42,39.77 24.5,40.03 24.62,40.54 
		24.73,41.08 24.73,41.25 24.75,41.31 24.79,41.36 24.86,41.67 24.99,42.53 25.02,42.83 25,42.88 24.9,42.9 	"/>
	<polygon class="st0" points="25.15,42.5 25.17,42.8 25.19,42.85 25.23,42.87 25.31,42.86 25.53,42.83 25.58,42.81 25.57,42.74 
		25.62,42.64 25.62,42.59 25.6,42.58 25.5,42.6 25.31,42.59 25.24,42.56 25.16,42.49 	"/>
	<polygon class="st0" points="25.83,42.8 25.76,42.79 25.75,42.75 25.78,42.69 25.96,42.4 26.01,42.32 26.13,42.19 26.23,42.12 
		26.37,42.05 26.41,42.05 26.46,42.08 26.47,42.12 26.46,42.2 26.41,42.28 26.29,42.46 26.18,42.64 26.07,42.76 25.87,42.8 	"/>
	<polygon class="st0" points="25.15,42.42 25.14,42.42 25.1,42.21 24.98,41.44 24.94,41.28 25.26,41.2 25.44,41.16 25.85,41.06 
		25.93,41.07 25.99,41.14 26,41.2 25.98,41.32 26.01,41.4 26.07,41.45 26.13,41.5 26.15,41.54 26.12,41.62 25.69,42.08 25.59,42.25 
		25.52,42.32 25.41,42.36 25.24,42.36 25.18,42.39 	"/>
	<polygon class="st0" points="19.44,42 19.3,42 19.18,41.97 19.08,41.91 18.89,41.76 18.8,41.71 18.5,41.45 18.44,41.43 
		18.25,41.46 18.18,41.43 18.04,41.31 17.65,40.95 17.47,40.76 17.44,40.7 17.47,40.7 17.84,40.96 17.98,41.06 18.63,41.51 
		18.93,41.67 19.31,41.89 19.45,41.96 19.47,41.98 	"/>
	<polygon class="st1" points="25.39,41.4 25.2,41.43 25.12,41.47 25.07,41.53 25.06,41.58 25.08,41.64 25.15,41.7 25.21,41.72 
		25.37,41.66 25.49,41.68 25.53,41.65 25.56,41.57 25.58,41.47 25.56,41.42 25.5,41.39 	"/>
	<polygon class="st0" points="25,41.11 24.92,41.1 24.89,41.06 24.78,40.55 24.67,40.09 24.68,40.04 24.74,40.04 24.84,40.06 
		24.93,40.06 24.97,40.04 25.02,40 25.09,40 25.23,40.03 25.28,40.06 25.33,40.12 25.42,40.3 25.5,40.4 25.51,40.47 25.5,40.56 
		25.53,40.62 25.6,40.68 25.64,40.82 25.71,40.89 25.71,40.92 25.64,40.95 25.31,41.04 	"/>
	<polygon class="st2" points="18.84,38.53 18.63,39.62 18.56,40.05 18.55,40.3 18.57,40.41 18.62,40.52 18.67,40.58 18.76,40.63 
		18.85,40.64 18.9,40.62 18.96,40.58 19.02,40.49 19.05,40.34 19.06,40.06 19.04,39.8 18.87,38.54 18.86,38.51 	"/>
	<polygon class="st0" points="17.27,40.48 17.22,40.46 17.13,40.37 16.89,40.04 16.66,39.71 16.57,39.57 16.4,39.3 16.2,38.93 
		16.13,38.75 16.12,38.67 16.15,38.51 16.27,38.15 16.36,37.91 16.4,37.81 16.44,37.79 16.49,37.8 16.68,37.95 16.8,38.08 17,38.33 
		17.12,38.52 17.23,38.76 17.32,39.01 17.37,39.21 17.41,39.5 17.42,39.82 17.39,40.09 17.33,40.4 17.29,40.47 	"/>
	<polygon class="st0" points="29.93,39.59 29.84,39.58 29.76,39.56 29.66,39.54 29.61,39.5 29.58,39.45 29.57,39.4 29.6,39.36 
		29.64,39.34 29.73,39.32 29.81,39.24 29.88,39.16 30.2,38.92 30.24,38.91 30.25,38.92 30.24,38.96 30.16,39.09 30.04,39.21 
		30.01,39.28 30.02,39.33 30.07,39.37 30.14,39.38 30.35,39.32 30.42,39.27 30.7,38.95 30.71,38.9 30.73,38.83 30.79,38.72 
		30.85,38.67 30.92,38.66 31.01,38.65 31.04,38.63 31.06,38.57 31.06,38.43 31.11,38.35 31.24,38.26 31.31,38.21 31.46,38.16 
		31.59,38.06 31.64,38.04 31.7,38.02 31.87,38.01 31.99,37.97 32.03,37.95 32.08,37.96 32.12,38.02 32.12,38.09 32.08,38.15 
		31.95,38.22 31.83,38.27 31.7,38.36 31.47,38.7 31.36,38.8 31.28,38.84 31.19,38.84 31.14,38.84 31.07,38.87 30.95,38.98 
		30.87,39.08 30.73,39.31 30.66,39.43 30.61,39.49 30.53,39.52 30.41,39.55 30.35,39.53 30.26,39.47 30.2,39.47 30.12,39.53 
		30.08,39.56 29.97,39.58 	"/>
	<polygon class="st0" points="34.32,39.44 34.28,39.42 34.27,39.37 34.27,39.27 34.28,39.15 34.27,39.08 34.19,39 34.14,38.95 
		34.13,38.91 34.13,38.85 34.19,38.73 34.24,38.65 34.26,38.55 34.24,38.45 34.18,38.34 34.11,38.27 34.12,38.16 34.21,37.9 
		34.24,37.78 34.21,37.73 34.16,37.68 34.04,37.59 33.98,37.52 33.98,37.47 34.03,37.38 34.15,37.18 34.23,36.99 34.23,36.91 
		34.19,36.89 34.16,36.9 34.07,37.04 33.99,37.2 33.87,37.37 33.82,37.41 33.77,37.4 33.66,37.34 33.55,37.32 33.5,37.29 
		33.47,37.22 33.4,36.92 33.38,36.75 33.37,36.43 33.41,36.14 33.5,35.81 33.64,35.41 33.67,35.26 33.69,34.94 33.72,34.83 
		33.8,34.69 33.89,34.62 33.96,34.59 34.04,34.6 34.11,34.65 34.17,34.72 34.24,34.84 34.3,35.06 34.33,35.21 34.33,35.58 
		34.3,35.98 34.27,36.18 34.26,36.38 34.32,36.91 34.36,37.12 34.44,37.39 34.52,37.83 34.56,38.23 34.56,38.67 34.54,39.05 
		34.52,39.13 34.36,39.4 	"/>
	<polygon class="st0" points="28.44,39.42 28.39,39.41 28.26,39.32 28.17,39.25 28.11,39.24 27.98,39.28 27.86,39.28 27.82,39.25 
		27.8,39.17 27.8,38.95 27.82,38.87 27.86,38.85 28.01,38.86 28.09,38.85 28.2,38.88 28.25,38.92 28.37,39.14 28.43,39.25 
		28.48,39.35 28.48,39.4 	"/>
	<polygon class="st0" points="28.71,39.34 28.66,39.33 28.61,39.28 28.37,38.86 28.34,38.78 28.36,38.69 28.41,38.61 28.48,38.56 
		28.55,38.54 28.68,38.55 28.74,38.52 28.89,38.3 28.98,38.21 29.01,38.2 29.16,38.21 29.19,38.18 29.2,38.14 29.16,38.07 
		29.07,38.02 28.99,38 28.89,38.01 28.8,38.03 28.67,38.02 28.55,37.97 28.49,37.98 28.41,38.03 28.3,38.13 28.21,38.19 28.05,38.2 
		28.02,38.19 28,38.11 27.96,38.07 27.95,38.05 27.96,37.99 28.27,37.34 28.45,36.88 28.57,36.5 28.62,36.23 28.68,35.82 
		28.73,35.01 28.75,34.37 28.79,34.13 28.85,33.93 28.95,33.72 29.06,33.57 29.18,33.47 29.32,33.4 29.48,33.36 29.64,33.36 
		29.79,33.39 29.95,33.45 30.14,33.57 30.28,33.72 30.43,33.96 30.69,34.43 30.82,34.63 30.94,34.76 31.17,34.97 31.42,35.15 
		31.88,35.41 32.22,35.63 32.38,35.79 32.51,35.98 32.61,36.2 32.64,36.35 32.66,36.66 32.63,36.99 32.6,37.14 32.57,37.17 
		32.54,37.17 32.45,37.16 32.39,37.17 32.3,37.16 32.06,37.22 32.02,37.21 32.02,37.17 32.09,37.07 32.41,36.67 32.55,36.46 
		32.57,36.39 32.56,36.31 32.53,36.29 32.49,36.32 32.3,36.55 31.96,36.99 31.87,37.08 31.82,37.08 31.73,37.01 31.11,36.37 
		30.41,35.6 30.33,35.5 29.93,35.01 29.88,34.91 29.89,34.87 29.97,34.79 30.19,34.6 30.45,34.36 30.48,34.3 30.46,34.24 
		30.43,34.24 30.39,34.26 30.01,34.58 29.83,34.72 29.76,34.74 29.72,34.72 29.52,34.47 29.36,34.24 29.26,34.1 29.13,33.92 
		29.1,33.87 29.07,33.83 29.03,33.82 29,33.85 28.98,33.89 28.99,33.95 29.06,34.06 29.55,34.73 29.61,34.81 29.63,34.86 
		29.58,34.92 29.14,35.29 28.84,35.52 28.79,35.58 28.79,35.65 28.81,35.66 28.86,35.66 28.95,35.6 29.33,35.3 29.54,35.13 
		29.68,35.03 29.73,35.02 29.77,35.03 29.86,35.14 30.25,35.62 30.36,35.73 30.65,36.07 31.5,36.99 31.54,37.03 31.69,37.18 
		31.7,37.22 31.69,37.24 31.35,37.33 31.26,37.33 31.17,37.31 31.03,37.3 30.95,37.27 30.87,37.21 30.82,37.19 30.72,37.2 
		30.51,37.28 30.41,37.34 30.36,37.39 30.17,37.64 30.1,37.69 30.01,37.74 29.92,37.84 29.89,37.92 29.86,38 29.87,38.1 
		29.91,38.17 29.97,38.22 30.02,38.24 30.29,38.22 30.33,38.23 30.34,38.28 30.26,38.53 30.25,38.67 30.21,38.72 29.96,38.92 
		29.92,38.93 29.86,38.92 29.71,38.86 29.56,38.83 29.46,38.83 29.38,38.87 29.32,38.95 29.18,39.22 29.14,39.27 29.08,39.28 
		28.96,39.24 28.9,39.25 28.77,39.32 	"/>
	<polygon class="st1" points="19.57,39.21 19.48,39.2 19.44,39.18 19.42,39.14 19.44,39.1 19.54,39.07 20.1,39.01 20.71,38.91 
		20.74,38.89 20.75,38.83 20.68,38.61 20.47,38.09 20.26,37.65 20.13,37.39 19.99,37.08 19.95,37.04 19.92,37.04 19.84,37.06 
		19.81,37.04 19.8,37 19.84,36.94 19.88,36.89 19.88,36.84 19.88,36.78 19.9,36.74 19.94,36.73 20.02,36.81 20.08,36.79 
		20.48,36.56 20.8,36.39 21.74,35.85 22.47,35.42 22.56,35.35 22.58,35.31 22.54,35.21 22.4,34.95 22.15,34.55 22.06,34.42 
		21.92,34.19 21.9,34.13 21.91,34.09 21.94,34.07 21.98,34.08 22.06,34.18 22.33,34.57 22.6,35.02 22.69,35.18 22.74,35.23 
		22.8,35.23 23.04,35.09 23.11,35.08 23.14,35.12 23.14,35.18 23.1,35.22 22.89,35.35 22.85,35.39 22.84,35.46 22.89,35.56 
		23.2,36.14 23.27,36.3 23.28,36.37 23.26,36.42 23.23,36.44 23.19,36.42 23.12,36.29 22.77,35.62 22.69,35.5 22.65,35.5 
		22.49,35.57 22.28,35.7 22.12,35.78 22.05,35.84 21.98,35.86 21.19,36.32 20.14,36.91 20.1,36.95 20.11,37.01 20.38,37.54 
		20.54,37.91 20.67,38.22 20.88,38.82 20.88,38.88 20.82,38.95 20.8,39.03 20.73,39.05 20.01,39.16 	"/>
	<polygon class="st0" points="21.02,39.02 20.99,39.04 20.98,39.08 20.99,39.11 21.04,39.12 21.09,39.11 21.17,39.07 21.17,39.03 
		21.16,39.01 21.09,39 	"/>
	<polygon class="st1" points="24.63,37.97 24.59,37.95 24.58,37.9 24.6,37.85 24.73,37.8 24.97,37.71 25.6,37.43 26.22,37.12 
		26.47,36.99 26.52,36.99 26.55,37.02 26.56,37.07 26.53,37.1 26.37,37.2 25.61,37.57 25.07,37.81 24.68,37.96 	"/>
	<polygon class="st0" points="20.77,32.23 20.72,32.21 20.7,32.17 20.7,30.41 20.71,30.36 20.77,30.34 21.94,30.34 21.99,30.36 
		22.01,30.44 22.01,30.69 21.99,30.74 21.95,30.76 21.24,30.76 21.16,30.78 21.14,30.84 21.14,30.99 21.16,31.04 21.24,31.06 
		21.79,31.06 21.83,31.08 21.85,31.13 21.85,31.42 21.84,31.47 21.8,31.5 21.22,31.5 21.16,31.53 21.14,31.58 21.15,31.76 
		21.17,31.8 21.22,31.81 21.93,31.81 22,31.84 22.02,31.86 22.02,32.17 22,32.21 21.96,32.23 	"/>
	<polygon class="st0" points="27.38,32.21 27.04,32.2 27,32.18 26.98,32.13 26.98,30.8 26.96,30.76 26.91,30.74 26.52,30.73 
		26.48,30.7 26.46,30.64 26.46,30.38 26.48,30.35 26.54,30.32 27.9,30.32 27.98,30.34 28,30.37 28,30.67 27.97,30.72 27.91,30.74 
		27.51,30.74 27.47,30.76 27.45,30.81 27.45,32.14 27.43,32.19 	"/>
	<polygon class="st0" points="28.7,32.2 28.44,32.2 28.39,32.18 28.37,32.13 28.36,30.4 28.37,30.34 28.4,30.32 28.72,30.32 
		28.77,30.34 28.8,30.4 28.8,30.93 28.81,31.01 28.85,31.03 29.5,31.04 29.57,31.01 29.59,30.96 29.6,30.37 29.62,30.34 
		29.67,30.32 29.97,30.32 30.02,30.34 30.04,30.38 30.05,32.11 30.03,32.17 29.99,32.19 29.65,32.19 29.62,32.17 29.61,32.1 
		29.6,31.56 29.59,31.49 29.54,31.47 28.84,31.47 28.82,31.5 28.8,31.57 28.81,32.13 28.79,32.17 28.74,32.2 	"/>
	<path class="st0" d="M22.45,32.22l-0.04-0.02l-0.01-0.02l0.58-1.79l0.04-0.06l0.04-0.02l0.46,0l0.06,0.02l0.04,0.05l0.71,1.75
		l-0.01,0.05l-0.04,0.02l-0.33,0l-0.1-0.02l-0.04-0.05l-0.1-0.29l-0.05-0.03l-0.65,0l-0.06,0.03l-0.09,0.29l-0.03,0.04l-0.08,0.03
		H22.45z M23.49,31.37l0.03-0.02l-0.01-0.05l-0.2-0.53H23.3l-0.17,0.52l-0.02,0.05l0.03,0.02L23.49,31.37z"/>
	<path class="st0" d="M25.83,32.21l-0.06-0.02l-0.38-0.54l-0.06-0.04l-0.22,0l-0.02,0.02l-0.01,0.05l0,0.46l-0.01,0.05l-0.06,0.03
		h-0.32l-0.04-0.02l-0.02-0.05l-0.01-1.74l0.02-0.06l0.05-0.02l0.89,0l0.17,0.03l0.12,0.05l0.11,0.08l0.1,0.11l0.07,0.14l0.02,0.11
		l-0.01,0.18l-0.03,0.1l-0.06,0.12l-0.1,0.13l-0.11,0.09l-0.01,0.03l0.42,0.66l-0.01,0.03l-0.04,0.02L25.83,32.21z M25.5,31.16
		l0.08-0.03l0.06-0.05l0.03-0.06l0.01-0.1l-0.03-0.09l-0.08-0.07l-0.12-0.03l-0.31,0l-0.05,0.02l-0.02,0.05l0,0.31l0.02,0.04
		l0.06,0.02h0.31L25.5,31.16z"/>
	<polygon class="st0" points="24.53,29.82 24.48,29.8 24.46,29.75 24.45,28.03 24.47,27.98 24.51,27.96 24.81,27.96 24.88,27.98 
		24.9,28.02 24.9,28.57 24.92,28.64 24.96,28.66 25.59,28.66 25.64,28.64 25.67,28.6 25.67,28.05 25.67,28 25.7,27.97 25.74,27.96 
		26.05,27.96 26.11,27.98 26.13,28.05 26.14,29.74 26.11,29.8 26.05,29.82 25.73,29.82 25.68,29.8 25.67,29.75 25.67,29.17 
		25.64,29.13 25.57,29.11 24.97,29.11 24.93,29.13 24.91,29.18 24.91,29.74 24.89,29.8 24.81,29.82 	"/>
	<polygon class="st0" points="23.54,29.83 23.21,29.83 23.16,29.8 23.14,29.77 23.14,28.44 23.12,28.39 23.05,28.36 22.63,28.37 
		22.59,28.34 22.58,28.26 22.58,28.04 22.6,27.99 22.65,27.97 24.1,27.96 24.16,27.98 24.18,28.03 24.18,28.34 24.13,28.37 
		24.05,28.38 23.66,28.38 23.62,28.39 23.6,28.42 23.6,29.76 23.59,29.8 	"/>
	<polygon class="st0" points="27.94,29.81 26.81,29.81 26.75,29.79 26.73,29.73 26.73,28.02 26.75,27.97 26.8,27.95 27.93,27.95 
		28,27.97 28.02,28.02 28.01,28.3 27.99,28.34 27.95,28.37 27.27,28.37 27.21,28.39 27.19,28.42 27.19,28.55 27.21,28.62 
		27.24,28.64 27.3,28.65 27.81,28.65 27.87,28.67 27.89,28.72 27.89,29.03 27.86,29.07 27.81,29.09 27.26,29.09 27.21,29.11 
		27.2,29.16 27.2,29.32 27.23,29.35 27.26,29.36 27.98,29.36 28.04,29.39 28.05,29.43 28.06,29.77 28.02,29.8 	"/>
	<polygon class="st0" points="21.42,27.61 21.22,27.6 21.03,27.56 20.89,27.5 20.7,27.38 20.58,27.26 20.47,27.11 20.4,26.91 
		20.36,26.73 20.35,26.56 20.38,26.37 20.44,26.19 20.52,26.04 20.61,25.91 20.75,25.79 20.9,25.7 21.09,25.64 21.25,25.61 
		21.4,25.6 21.67,25.63 21.89,25.7 21.97,25.74 22,25.78 22.01,25.83 22.01,26.16 21.99,26.2 21.95,26.21 21.72,26.1 21.52,26.05 
		21.37,26.05 21.22,26.07 21.09,26.13 20.99,26.19 20.91,26.29 20.86,26.41 20.82,26.56 20.83,26.69 20.86,26.83 20.94,26.96 
		21.04,27.05 21.15,27.12 21.31,27.17 21.49,27.18 21.66,27.15 21.79,27.09 21.92,27.01 21.97,26.98 21.99,26.98 22.01,27.02 
		22.02,27.33 21.99,27.4 21.93,27.47 21.79,27.53 21.58,27.59 	"/>
	<polygon class="st0" points="25.56,27.47 25.07,27.46 25.03,27.45 25,27.4 24.45,25.73 24.44,25.65 24.46,25.62 24.56,25.6 
		24.81,25.61 24.87,25.62 24.9,25.69 25.28,26.92 25.31,26.95 25.34,26.95 25.36,26.92 25.73,25.72 25.78,25.63 25.85,25.59 
		26.11,25.6 26.19,25.62 26.21,25.65 26.19,25.75 25.62,27.43 25.59,27.46 	"/>
	<polygon class="st0" points="26.65,27.45 26.6,27.44 26.56,27.38 26.56,25.66 26.58,25.62 26.61,25.59 26.66,25.58 27.79,25.58 
		27.85,25.6 27.87,25.64 27.87,25.91 27.85,25.98 27.79,26.01 27.08,26.01 27.05,26.03 27.04,26.08 27.04,26.24 27.05,26.29 
		27.11,26.31 27.67,26.31 27.74,26.34 27.76,26.39 27.76,26.69 27.73,26.71 27.68,26.72 27.1,26.72 27.06,26.74 27.03,26.77 
		27.04,26.96 27.06,27.01 27.1,27.03 27.84,27.03 27.88,27.06 27.9,27.11 27.9,27.39 27.88,27.43 27.83,27.45 	"/>
	<path class="st0" d="M23.31,27.54l-0.21-0.01l-0.16-0.03l-0.17-0.07l-0.13-0.08l-0.14-0.13l-0.12-0.18l-0.08-0.19l-0.03-0.18v-0.26
		l0.05-0.19l0.07-0.16l0.13-0.19l0.14-0.13l0.13-0.08l0.15-0.06l0.25-0.05l0.23,0.01l0.19,0.05l0.21,0.09l0.18,0.14l0.11,0.14
		l0.05,0.1l0.07,0.18l0.03,0.19v0.19l-0.03,0.21l-0.07,0.17l-0.11,0.17l-0.1,0.11l-0.13,0.09l-0.16,0.08l-0.19,0.05L23.31,27.54z
		 M23.38,27.12l0.15-0.05l0.09-0.06l0.09-0.11l0.06-0.12l0.03-0.15l0-0.16l-0.04-0.16l-0.08-0.14l-0.11-0.11L23.44,26l-0.15-0.03
		l-0.12,0.01l-0.14,0.04l-0.12,0.07l-0.09,0.1l-0.07,0.13l-0.03,0.16l0.01,0.19l0.04,0.13l0.08,0.14l0.1,0.09l0.1,0.06l0.16,0.04
		l0.14,0L23.38,27.12z"/>
	<path class="st0" d="M29.92,27.44l-0.38,0l-0.06-0.02l-0.27-0.45l-0.05-0.07l-0.07-0.02h-0.17l-0.05,0.02l-0.02,0.04l0,0.44
		l-0.02,0.04l-0.04,0.02h-0.29l-0.06-0.02l-0.02-0.04l0-1.76l0.03-0.03l0.07-0.01h0.8l0.21,0.03l0.1,0.03l0.12,0.07l0.09,0.09
		l0.06,0.11l0.05,0.16l0.01,0.12l-0.01,0.14l-0.05,0.14l-0.06,0.1l-0.08,0.08l-0.12,0.09l-0.01,0.04l0.34,0.56l0.02,0.06l-0.02,0.03
		L29.92,27.44z M29.23,26.44l0.1-0.03l0.08-0.06l0.04-0.07l0.02-0.11l-0.03-0.08l-0.05-0.05L29.31,26l-0.42,0l-0.04,0.02l-0.02,0.04
		l0,0.3l0.02,0.06l0.04,0.02H29.23z"/>
	<polygon class="st2" points="20.48,24.28 20.32,24.27 20.17,24.22 20.05,24.13 20,24.05 19.95,23.94 19.91,23.76 19.92,23.58 
		19.96,23.36 20.02,23.21 20.19,22.93 20.37,22.74 20.48,22.64 20.81,22.4 21.19,22.2 21.58,22.04 22.12,21.91 22.41,21.87 
		22.8,21.86 23.12,21.89 23.39,21.95 23.65,22.02 23.95,22.16 24.16,22.28 24.44,22.49 24.65,22.7 24.77,22.86 24.77,22.89 
		24.72,22.86 24.51,22.72 24.2,22.56 23.91,22.46 23.64,22.4 23.3,22.36 22.98,22.37 22.66,22.43 22.38,22.51 22.11,22.64 
		21.86,22.79 21.71,22.92 21.52,23.14 21.28,23.51 21.05,23.92 20.89,24.09 20.76,24.18 20.61,24.25 	"/>
	<polygon class="st2" points="30.17,24.12 30.02,24.12 29.89,24.08 29.71,23.97 29.27,23.57 28.95,23.3 28.79,23.17 28.65,23.05 
		28.31,22.82 28.09,22.71 27.75,22.56 27.45,22.5 27.16,22.46 26.97,22.47 26.73,22.52 26.44,22.61 26.37,22.64 26.35,22.63 
		26.41,22.57 26.54,22.48 26.85,22.32 27.12,22.2 27.54,22.09 27.8,22.04 28.06,22.01 28.52,22.03 28.86,22.07 29.21,22.14 
		29.46,22.24 29.69,22.35 29.9,22.49 30.19,22.73 30.36,22.91 30.49,23.12 30.56,23.29 30.6,23.45 30.6,23.62 30.57,23.77 
		30.52,23.88 30.44,24 30.32,24.08 	"/>
	<polygon class="st1" points="26.93,23.99 26.88,23.98 26.84,23.92 26.76,23.78 26.67,23.65 26.56,23.56 26.4,23.47 26.27,23.44 
		26.15,23.43 26,23.46 25.97,23.45 25.96,23.4 25.99,23.36 26.07,23.29 26.21,23.22 26.32,23.19 26.45,23.19 26.61,23.22 
		26.72,23.29 26.8,23.38 26.86,23.47 26.9,23.6 26.94,23.96 	"/>
	<polygon class="st2" points="24.78,22.49 24.72,22.45 24.53,22.27 24.26,22.05 23.99,21.86 23.69,21.71 23.4,21.6 23.03,21.51 
		22.77,21.48 22.63,21.47 22.28,21.48 21.95,21.53 21.52,21.64 21.12,21.79 20.96,21.83 20.83,21.82 20.71,21.78 20.63,21.71 
		20.59,21.64 20.56,21.53 20.58,21.37 20.64,21.22 20.73,21.09 20.85,20.99 21.02,20.87 21.2,20.78 21.44,20.71 21.74,20.64 
		21.91,20.62 22.26,20.63 22.62,20.69 22.94,20.8 23.37,21.02 23.71,21.24 24.01,21.46 24.34,21.78 24.52,22.01 24.72,22.32 
		24.78,22.45 24.79,22.48 	"/>
	<polygon class="st2" points="26.18,22.39 26.16,22.38 26.22,22.25 26.43,21.95 26.83,21.52 27.12,21.29 27.48,21.05 27.86,20.85 
		28.25,20.71 28.54,20.65 28.68,20.64 28.98,20.64 29.16,20.68 29.28,20.73 29.4,20.81 29.49,20.89 29.55,21 29.57,21.09 
		29.57,21.2 29.51,21.33 29.43,21.43 29.29,21.51 29.07,21.58 28.84,21.6 27.92,21.65 27.58,21.71 27.35,21.77 27.05,21.87 
		26.82,21.96 26.49,22.15 26.21,22.37 	"/>
	<polygon class="st2" points="26.03,22.06 26.02,22.05 26.03,21.97 26.12,21.6 26.24,21.22 26.43,20.79 26.64,20.39 26.79,20.19 
		27.05,19.9 27.16,19.8 27.34,19.65 27.53,19.53 27.77,19.44 27.92,19.4 28.13,19.41 28.26,19.45 28.36,19.53 28.42,19.61 
		28.46,19.72 28.47,19.85 28.43,19.95 28.35,20.07 28.22,20.2 28,20.34 27.68,20.5 27.4,20.64 27.19,20.78 26.78,21.09 26.52,21.34 
		26.35,21.55 26.16,21.84 26.06,22.03 	"/>
	<polygon class="st2" points="24.82,22.05 24.78,22.01 24.59,21.71 24.44,21.51 24.16,21.22 23.79,20.92 23.38,20.66 22.71,20.3 
		22.55,20.18 22.45,20.06 22.38,19.93 22.35,19.83 22.35,19.69 22.41,19.57 22.48,19.5 22.58,19.44 22.68,19.41 22.82,19.41 
		23.02,19.45 23.27,19.57 23.5,19.72 23.83,20 24.07,20.27 24.34,20.63 24.5,20.91 24.63,21.2 24.74,21.54 24.82,21.89 24.83,22.02 
			"/>
	<polygon class="st0" points="24.03,17.07 23.98,17.06 23.91,16.98 23.85,16.9 23.83,16.84 23.83,16.73 23.86,16.59 24.05,16.16 
		24.29,15.75 24.69,15.17 25.16,14.62 25.36,14.4 25.65,14.12 26.1,13.72 26.74,13.24 27.19,12.96 27.67,12.7 28.04,12.53 
		28.29,12.48 28.39,12.5 28.49,12.58 28.52,12.64 28.52,12.68 28.47,12.72 28.04,12.92 27.6,13.16 27.37,13.32 27.26,13.39 
		26.8,13.72 26.67,13.83 26.3,14.13 25.79,14.58 25.37,15.04 25.26,15.17 25.07,15.4 24.7,15.9 24.45,16.29 24.15,16.82 
		24.07,17.03 	"/>
	<polygon class="st0" points="23.4,16.75 23.32,16.74 23.26,16.7 22.89,16.28 22.94,16.07 22.94,15.98 22.9,15.92 22.71,15.7 
		22.36,15.3 21.53,14.4 20.64,13.45 20.3,13.07 20.19,12.95 20.13,12.85 20.11,12.77 20.14,12.59 20.23,12.26 20.39,11.87 
		20.58,11.49 20.77,11.16 20.96,10.88 21.37,10.33 21.63,10.05 21.95,9.74 22.17,9.55 22.51,9.29 22.99,8.99 23.5,8.72 23.9,8.56 
		24.22,8.45 24.41,8.41 24.59,8.4 24.69,8.43 24.76,8.49 25.1,8.86 25.2,8.97 25.54,9.36 25.74,9.58 26.57,10.48 26.74,10.65 
		26.84,10.77 27.61,11.6 27.68,11.64 27.74,11.65 27.89,11.62 27.98,11.62 28.04,11.67 28.17,11.8 28.24,11.9 28.33,11.99 
		28.34,12.05 28.3,12.13 28.24,12.28 28.19,12.31 27.95,12.38 27.43,12.61 27.12,12.79 26.36,13.29 25.98,13.59 25.49,14.03 
		25.06,14.46 24.76,14.82 24.56,15.07 24.25,15.49 23.95,15.98 23.79,16.27 23.7,16.49 23.63,16.67 23.61,16.7 23.54,16.71 
		23.46,16.72 	"/>
	<polygon class="st0" points="22.61,16.66 22.58,16.64 22.44,16.5 22.38,16.4 22.08,15.99 21.88,15.67 21.73,15.39 21.69,15.28 
		21.69,15.26 21.74,15.27 22,15.53 22.43,16.02 22.51,16.16 22.53,16.23 22.5,16.41 22.52,16.49 22.62,16.63 	"/>
	<polygon class="st2" points="23.16,15.26 23.02,15.26 22.87,15.22 22.7,15.13 22.53,14.99 22.32,14.77 22.07,14.44 21.89,14.15 
		21.8,13.92 21.75,13.73 21.73,13.54 21.75,13.38 21.8,13.18 21.92,12.94 21.92,12.88 21.81,12.72 21.58,12.42 21.47,12.25 
		21.24,11.96 21.2,11.87 21.21,11.79 21.31,11.63 21.39,11.51 21.44,11.5 21.48,11.52 21.76,11.87 23.07,13.56 23.44,14.06 
		23.64,14.32 23.79,14.52 23.81,14.56 23.8,14.62 23.63,14.91 23.5,15.07 23.39,15.16 23.27,15.23 	"/>
	<polygon class="st0" points="23.09,14.66 22.99,14.65 22.86,14.6 22.74,14.5 22.59,14.34 22.37,14.02 22.28,13.85 22.22,13.69 
		22.21,13.63 22.22,13.52 22.25,13.43 22.27,13.4 22.32,13.4 22.38,13.47 23.15,14.46 23.2,14.55 23.19,14.58 23.15,14.63 	"/>
	<polygon class="st2" points="23.93,14.42 23.88,14.4 23.44,13.61 22.96,12.77 22.37,11.7 21.92,10.86 21.91,10.8 21.95,10.72 
		22.08,10.57 22.14,10.52 22.2,10.46 22.25,10.45 22.3,10.47 22.45,10.62 22.55,10.73 23.72,11.95 23.92,12.14 23.94,12.15 
		23.93,12.11 23.61,11.6 22.75,10.29 22.66,10.13 22.66,10.07 22.73,9.98 22.94,9.82 23.03,9.78 23.08,9.79 23.28,9.95 23.39,10.07 
		25.13,11.73 25.85,12.41 25.89,12.47 25.88,12.52 25.76,12.61 25.56,12.74 25.5,12.76 25.45,12.73 25.34,12.62 24.98,12.25 
		24.8,12.08 24.66,11.93 24.55,11.82 23.98,11.22 23.66,10.87 23.59,10.83 23.61,10.89 23.7,11.04 24.04,11.57 24.45,12.23 
		24.64,12.52 24.81,12.79 25.03,13.13 25.05,13.2 25.02,13.25 24.76,13.5 24.71,13.52 24.67,13.51 24.58,13.43 24.09,12.91 
		23.8,12.59 22.9,11.66 22.85,11.63 22.85,11.65 22.9,11.77 23.5,12.77 24.19,13.99 24.21,14.08 24.18,14.14 23.98,14.38 	"/>
	<polygon class="st0" points="19.9,12.59 19.86,12.58 19.76,12.46 19.73,12.39 19.74,12.26 19.77,12.12 19.89,11.77 20.04,11.43 
		20.26,11.02 20.63,10.48 20.72,10.35 20.9,10.14 21.04,9.96 21.1,9.9 21.43,9.56 21.58,9.41 21.71,9.3 21.88,9.15 22.31,8.83 
		22.75,8.56 23.19,8.33 23.6,8.15 23.94,8.04 24.17,8 24.27,8.01 24.32,8.03 24.44,8.14 24.46,8.19 24.44,8.21 24.09,8.28 
		23.69,8.41 23.17,8.66 22.8,8.86 22.28,9.21 21.9,9.52 21.63,9.75 21.35,10.05 20.96,10.53 20.7,10.89 20.4,11.39 20.17,11.84 
		20.04,12.16 19.93,12.56 	"/>
	<polygon class="st2" points="26.18,12.22 26,12.19 25.84,12.13 25.69,12.04 25.36,11.75 25.24,11.62 25.23,11.58 25.25,11.54 
		25.34,11.48 25.55,11.37 25.6,11.36 25.65,11.39 25.76,11.5 25.87,11.59 26,11.68 26.12,11.71 26.19,11.69 26.24,11.65 
		26.26,11.58 26.23,11.49 26.13,11.37 26.01,11.28 25.78,11.13 25.47,10.98 24.92,10.75 24.43,10.5 24.13,10.3 23.98,10.15 
		23.86,9.99 23.79,9.83 23.76,9.68 23.77,9.54 23.81,9.42 23.89,9.3 23.99,9.2 24.12,9.14 24.3,9.1 24.5,9.1 24.65,9.14 24.85,9.22 
		25.13,9.4 25.33,9.59 25.37,9.66 25.35,9.71 25.22,9.78 25.05,9.85 24.99,9.86 24.91,9.81 24.77,9.68 24.62,9.6 24.49,9.57 
		24.4,9.58 24.35,9.63 24.33,9.69 24.33,9.76 24.37,9.84 24.48,9.95 24.68,10.09 24.92,10.21 25.03,10.26 25.08,10.28 25.14,10.31 
		25.69,10.54 25.98,10.68 26.27,10.86 26.44,11 26.58,11.14 26.69,11.3 26.75,11.43 26.79,11.59 26.8,11.72 26.77,11.83 
		26.71,11.95 26.63,12.05 26.51,12.13 26.36,12.19 26.26,12.21 	"/>
	<polygon class="st0" points="28.31,11.28 28.25,11.24 28.14,11.14 28.06,11.11 27.97,11.11 27.91,11.14 27.84,11.12 27.72,11.02 
		27.47,10.74 27.02,10.26 26.99,10.21 27.06,10.22 27.36,10.41 27.76,10.7 28.09,10.99 28.3,11.22 28.31,11.27 	"/>
	<g>
		<path class="st0" d="M31.83,46.07c0.67,0,1.21,0.54,1.21,1.21c0,0.67-0.54,1.21-1.21,1.21c-0.67,0-1.21-0.54-1.21-1.21
			C30.62,46.61,31.16,46.07,31.83,46.07 M31.83,48.22c0.48,0,0.86-0.38,0.86-0.94c0-0.56-0.38-0.94-0.86-0.94
			c-0.49,0-0.86,0.39-0.86,0.94C30.97,47.84,31.35,48.22,31.83,48.22 M31.35,46.6h0.51c0.34,0,0.54,0.1,0.54,0.4
			c0,0.24-0.15,0.34-0.36,0.36l0.36,0.58h-0.3l-0.32-0.57h-0.14v0.57h-0.29V46.6z M31.87,47.15c0.14,0,0.23-0.02,0.23-0.18
			c0-0.14-0.15-0.15-0.26-0.15h-0.21v0.33H31.87z"/>
		<polygon class="st0" points="27.04,45.1 26.97,45.1 26.97,45.08 27.03,45.08 27.05,45.09 		"/>
		<path class="st0" d="M47.26,14.73c-1.88,0-4.07,0.85-4.07,3.23c0,1.55,1.08,2.15,2.13,2.72c0.86,0.47,1.67,0.92,1.67,1.86
			c0,1.24-1.11,1.8-2.21,1.8c-0.98,0-1.89-0.37-2.68-0.72c-0.05,0.16-0.48,1.55-0.52,1.69c1.09,0.38,2.13,0.58,3.07,0.58
			c1.35,0,4.5-0.35,4.5-3.57c0-1.68-1.19-2.37-2.24-2.98c-0.8-0.46-1.56-0.9-1.56-1.71c0-0.93,0.98-1.34,1.95-1.34
			c0.74,0,1.55,0.2,2.26,0.54c0.04-0.15,0.43-1.49,0.48-1.63C49.26,14.89,48.32,14.73,47.26,14.73"/>
		<polygon class="st0" points="51.3,17.03 53.05,17.03 52.31,20.5 55.84,20.5 56.57,17.03 58.32,17.03 56.5,25.61 54.75,25.61 
			55.55,21.85 52.02,21.85 51.22,25.61 49.47,25.61 		"/>
		<path class="st0" d="M56.56,25.69h-1.91l0.8-3.76h-3.37l-0.8,3.76h-1.91l1.86-8.73h1.91l-0.74,3.47h3.37l0.74-3.47h1.91
			L56.56,25.69z M54.84,25.53h1.59l1.79-8.42h-1.59l-0.74,3.47h-3.68l0.74-3.47h-1.59l-1.79,8.42h1.59l0.8-3.76h3.68L54.84,25.53z"
			/>
		<polygon class="st0" points="59.82,17.03 64.95,17.03 64.69,18.39 61.28,18.39 60.83,20.5 63.88,20.5 63.6,21.85 60.54,21.85 
			60.03,24.26 63.48,24.26 63.18,25.61 57.98,25.61 		"/>
		<path class="st0" d="M63.24,25.69h-5.36l1.87-8.73h5.29l-0.29,1.51h-3.41l-0.42,1.96h3.05l-0.31,1.51H60.6l-0.48,2.25h3.45
			L63.24,25.69z M58.07,25.53h5.04l0.27-1.2h-3.45l0.55-2.56h3.06l0.24-1.2h-3.05l0.48-2.27h3.41l0.23-1.2h-4.98L58.07,25.53z"/>
		<path class="st0" d="M66.46,17.03h2.06c1.61,0,3.47-0.02,3.47,2.03c0,1.47-1.13,2.26-2.55,2.28v0.02
			c0.47,0.02,0.78,0.32,0.89,0.79l0.84,3.45h-1.84l-0.42-2.02c-0.2-0.91-0.15-1.55-1.1-1.55h-0.66l-0.76,3.56h-1.75L66.46,17.03z
			 M67.46,20.7h0.64c0.94,0,2.08-0.28,2.08-1.41c0-0.9-0.79-0.9-1.5-0.9h-0.72L67.46,20.7z"/>
		<path class="st0" d="M71.27,25.69h-2l-0.44-2.08c-0.03-0.14-0.05-0.27-0.08-0.39c-0.13-0.7-0.2-1.09-0.95-1.09h-0.6l-0.76,3.56
			h-1.91l1.86-8.73h2.24c1.53,0,3.44,0,3.44,2.1c0,1.28-0.85,2.16-2.21,2.33c0.27,0.13,0.46,0.39,0.55,0.74L71.27,25.69z
			 M69.39,25.53h1.68l-0.81-3.36c-0.08-0.32-0.28-0.7-0.82-0.73l-0.07,0v-0.17l0.08,0c0.71-0.01,1.32-0.21,1.76-0.58
			c0.47-0.39,0.71-0.95,0.71-1.63c0-1.95-1.75-1.95-3.29-1.95h-2.11l-1.79,8.42h1.59l0.76-3.56h0.73c0.87,0,0.97,0.51,1.1,1.22
			c0.02,0.12,0.05,0.25,0.08,0.39L69.39,25.53z M68.09,20.77h-0.73l0.52-2.46h0.79c0.7,0,1.58,0,1.58,0.97
			C70.25,20.63,68.74,20.77,68.09,20.77 M67.55,20.62h0.54c0.6,0,2-0.13,2-1.33c0-0.82-0.69-0.82-1.42-0.82h-0.66L67.55,20.62z"/>
		<polygon class="st0" points="73,17.03 74.75,17.03 75.01,23.61 75.04,23.61 77.94,17.03 80.29,17.03 80.33,23.61 80.35,23.61 
			83.44,17.03 85.25,17.03 81.09,25.61 78.9,25.61 78.81,18.75 78.79,18.75 75.71,25.61 73.55,25.61 		"/>
		<path class="st0" d="M81.14,25.69h-2.31l-0.08-6.64l-2.98,6.64h-2.28l-0.56-8.73h1.91l0,0.07l0.25,6.29l2.81-6.37h2.48l0.04,6.36
			l2.99-6.36h1.99L81.14,25.69z M78.98,25.53h2.06l4.09-8.42h-1.64l-3.09,6.57h-0.15l-0.04-6.57h-2.22l-2.9,6.57h-0.15l0-0.07
			l-0.26-6.5h-1.59l0.54,8.42h2.04l3.08-6.86h0.15L78.98,25.53z"/>
		<polygon class="st0" points="86.21,17.03 88.04,17.03 86.2,25.61 84.38,25.61 		"/>
		<path class="st0" d="M86.26,25.69h-1.98l1.87-8.73h1.98L86.26,25.69z M84.47,25.53h1.67l1.8-8.42h-1.67L84.47,25.53z"/>
		<polygon class="st0" points="89.65,17.03 91.86,17.03 93.73,23.55 93.75,23.55 95.18,17.03 96.83,17.03 94.94,25.61 92.69,25.61 
			90.86,19.04 90.84,19.04 89.45,25.61 87.78,25.61 		"/>
		<path class="st0" d="M95,25.69h-2.37l-1.77-6.38l-1.35,6.38h-1.83l1.91-8.73h2.33l1.81,6.32l1.38-6.32h1.81l-0.02,0.09L95,25.69z
			 M92.75,25.53h2.13l1.85-8.42h-1.49l-1.43,6.51h-0.15l-1.86-6.51h-2.09l-1.84,8.42h1.52l1.39-6.57h0.15L92.75,25.53z"/>
		<path class="st0" d="M98,36.62c0.67,0,1.21,0.54,1.21,1.21c0,0.67-0.54,1.21-1.21,1.21c-0.67,0-1.21-0.54-1.21-1.21
			C96.79,37.16,97.33,36.62,98,36.62 M98,38.77c0.48,0,0.86-0.38,0.86-0.94c0-0.56-0.38-0.94-0.86-0.94c-0.49,0-0.86,0.39-0.86,0.94
			C97.14,38.39,97.52,38.77,98,38.77 M97.52,37.15h0.51c0.34,0,0.54,0.1,0.54,0.4c0,0.25-0.15,0.34-0.36,0.36l0.36,0.58h-0.3
			l-0.32-0.57H97.8v0.57h-0.29V37.15z M98.04,37.71c0.14,0,0.23-0.02,0.23-0.18c0-0.14-0.15-0.15-0.26-0.15h-0.2v0.33H98.04z"/>
		<path class="st0" d="M49.87,36.53l-0.16-0.03c0,0-0.04-8.2-0.04-8.33h-2.68c-0.03,0.08-3.43,8.36-3.43,8.36l-0.16-0.02
			c0,0-0.31-8.2-0.31-8.33h-1.94c0.01,0.14,0.64,10.69,0.65,10.82h2.46c0.03-0.08,3.64-8.72,3.64-8.72l0.16,0.03
			c0,0,0.1,8.56,0.1,8.69h2.49c0.04-0.08,4.81-10.63,4.89-10.82h-2.01C53.49,28.25,49.87,36.53,49.87,36.53"/>
		<polygon class="st0" points="55.52,30.35 57.22,30.35 55.51,38.93 53.81,38.93 		"/>
		<path class="st0" d="M55.57,39h-1.86l1.74-8.73h1.86L55.57,39z M53.9,38.85h1.54l1.68-8.42h-1.54L53.9,38.85z"/>
		<polygon class="st0" points="58.73,30.35 60.36,30.35 58.9,37.57 62.09,37.57 61.81,38.93 57.01,38.93 		"/>
		<path class="st0" d="M61.88,39h-4.96l1.75-8.73h1.79L59,37.5h3.19L61.88,39z M57.1,38.85h4.65l0.25-1.2h-3.19l1.45-7.23h-1.47
			L57.1,38.85z"/>
		<polygon class="st0" points="64.55,30.35 66.18,30.35 64.72,37.57 67.91,37.57 67.63,38.93 62.83,38.93 		"/>
		<path class="st0" d="M67.7,39h-4.96l1.75-8.73h1.79l-1.46,7.23h3.19L67.7,39z M62.92,38.85h4.65l0.25-1.2h-3.19l1.46-7.23h-1.47
			L62.92,38.85z"/>
		<polygon class="st0" points="70.29,30.35 71.99,30.35 70.28,38.93 68.58,38.93 		"/>
		<path class="st0" d="M70.34,39h-1.86l1.74-8.73h1.86L70.34,39z M68.67,38.85h1.54l1.68-8.42h-1.54L68.67,38.85z"/>
		<path class="st0" d="M76.05,30.35h1.8l1.48,8.58H77.7l-0.28-1.97h-3.46l-1.04,1.97h-1.8L76.05,30.35z M74.69,35.61h2.51
			l-0.51-3.73h-0.05L74.69,35.61z"/>
		<path class="st0" d="M79.42,39h-1.79l-0.28-1.97h-3.34L72.98,39h-1.98L76,30.27h1.91L79.42,39z M77.77,38.85h1.47l-1.45-8.42
			h-1.69l-4.84,8.42h1.62l1.04-1.97h3.57L77.77,38.85z M77.29,35.69h-2.73l2.04-3.89h0.16L77.29,35.69z M74.81,35.53h2.3l-0.48-3.48
			L74.81,35.53z"/>
		<polygon class="st0" points="81.93,30.35 84.62,30.35 85.17,36.53 85.19,36.53 88.39,30.35 91.1,30.35 89.37,38.93 87.65,38.93 
			89.18,31.82 89.16,31.82 85.48,38.93 83.92,38.93 83.27,31.82 83.25,31.82 81.76,38.93 80.21,38.93 		"/>
		<path class="st0" d="M89.43,39h-1.88L89,32.3L85.53,39h-1.68l-0.62-6.74L81.82,39h-1.71l1.75-8.73h2.82l0.53,6.02l3.12-6.02h2.85
			L89.43,39z M87.74,38.85h1.56l1.7-8.42h-2.57l-3.2,6.18H85.1l-0.55-6.18h-2.55l-1.69,8.42h1.39l1.49-7.1h0.16l0.65,7.1h1.44
			l3.68-7.1h0.17l-0.02,0.09L87.74,38.85z"/>
		<path class="st0" d="M96.51,32c-0.48-0.26-1.09-0.44-1.69-0.44c-0.58,0-1.36,0.25-1.36,0.98c0,1.38,2.77,1.29,2.77,3.67
			c0,2.1-1.56,2.86-3.34,2.86c-0.78,0-1.58-0.2-2.32-0.48l0.42-1.46c0.63,0.31,1.29,0.59,1.99,0.59c0.78,0,1.55-0.42,1.55-1.34
			c0-1.55-2.77-1.3-2.77-3.59c0-1.81,1.47-2.59,3.03-2.59c0.71,0,1.44,0.1,2.11,0.38L96.51,32z"/>
		<path class="st0" d="M92.89,39.15c-0.72,0-1.51-0.16-2.34-0.48l-0.07-0.03l0.46-1.62l0.08,0.04c0.58,0.28,1.25,0.58,1.96,0.58
			c0.73,0,1.47-0.39,1.47-1.26c0-0.65-0.53-0.97-1.15-1.33c-0.76-0.45-1.62-0.96-1.62-2.26c0-1.97,1.67-2.67,3.1-2.67
			c0.82,0,1.53,0.13,2.14,0.39l0.06,0.03l-0.43,1.57l-0.09-0.05c-0.51-0.28-1.11-0.43-1.65-0.43c-0.48,0-1.28,0.19-1.28,0.91
			c0,0.55,0.49,0.86,1.07,1.22c0.76,0.47,1.7,1.06,1.7,2.46C96.3,38.08,95.06,39.15,92.89,39.15 M90.66,38.55
			c0.79,0.3,1.54,0.45,2.22,0.45c0.98,0,3.26-0.27,3.26-2.78c0-1.31-0.87-1.85-1.63-2.33c-0.59-0.37-1.14-0.71-1.14-1.35
			c0-0.73,0.72-1.06,1.44-1.06c0.53,0,1.13,0.15,1.64,0.41l0.34-1.25c-0.57-0.23-1.25-0.35-2.01-0.35c-1.36,0-2.95,0.66-2.95,2.51
			c0,1.21,0.79,1.67,1.55,2.12c0.63,0.37,1.22,0.72,1.22,1.46c0,0.98-0.82,1.42-1.63,1.42c-0.7,0-1.37-0.28-1.94-0.56L90.66,38.55z"
			/>
	</g>
</g>
</svg>
