<?xml version="1.0" encoding="utf-8"?>
<!-- Generator: Adobe Illustrator 27.3.1, SVG Export Plug-In . SVG Version: 6.00 Build 0)  -->
<svg version="1.1" id="Capa_1" xmlns="http://www.w3.org/2000/svg" xmlns:xlink="http://www.w3.org/1999/xlink" x="0px" y="0px"
	 viewBox="0 0 24 24" style="enable-background:new 0 0 24 24;" xml:space="preserve">
<style type="text/css">
	.st0{fill:#FE0103;}
</style>
<path class="st0" d="M19.95,21c-2.08,0-4.14-0.45-6.18-1.36c-2.03-0.91-3.88-2.2-5.55-3.86s-2.95-3.52-3.86-5.55S3,6.13,3,4.05
	C3,3.75,3.1,3.5,3.3,3.3C3.5,3.1,3.75,3,4.05,3H8.1c0.23,0,0.44,0.08,0.62,0.24S9.02,3.58,9.05,3.8L9.7,7.3
	c0.03,0.27,0.03,0.49-0.02,0.68S9.53,8.32,9.4,8.45L6.97,10.9c0.33,0.62,0.73,1.21,1.19,1.79c0.46,0.57,0.96,1.13,1.51,1.66
	c0.52,0.52,1.06,1,1.62,1.44c0.57,0.44,1.17,0.85,1.8,1.21l2.35-2.35c0.15-0.15,0.35-0.26,0.59-0.34c0.24-0.07,0.48-0.1,0.71-0.06
	l3.45,0.7c0.23,0.07,0.42,0.19,0.57,0.36C20.93,15.49,21,15.68,21,15.9v4.05c0,0.3-0.1,0.55-0.3,0.75C20.5,20.9,20.25,21,19.95,21z
	 M6.03,9l1.65-1.65L7.25,5H5.03c0.08,0.68,0.2,1.36,0.35,2.03S5.74,8.35,6.03,9z M14.98,17.95c0.65,0.28,1.31,0.51,1.99,0.67
	c0.68,0.17,1.35,0.27,2.04,0.33v-2.2l-2.35-0.48L14.98,17.95z"/>
</svg>
