<?xml version="1.0" encoding="utf-8"?>
<!-- Generator: Adobe Illustrator 27.3.1, SVG Export Plug-In . SVG Version: 6.00 Build 0)  -->
<svg version="1.1" id="Capa_1" xmlns="http://www.w3.org/2000/svg" xmlns:xlink="http://www.w3.org/1999/xlink" x="0px" y="0px"
	 viewBox="0 0 24 24" style="enable-background:new 0 0 24 24;" xml:space="preserve">
<style type="text/css">
	.st0{fill:#FE0103;}
</style>
<path class="st0" d="M12,12c0.55,0,1.02-0.2,1.41-0.59S14,10.55,14,10s-0.2-1.02-0.59-1.41S12.55,8,12,8s-1.02,0.2-1.41,0.59
	S10,9.45,10,10s0.2,1.02,0.59,1.41S11.45,12,12,12z M12,19.35c2.03-1.87,3.54-3.56,4.52-5.09S18,11.38,18,10.2
	c0-1.82-0.58-3.3-1.74-4.46S13.68,4,12,4S8.9,4.58,7.74,5.74S6,8.38,6,10.2c0,1.18,0.49,2.54,1.47,4.06S9.97,17.48,12,19.35z M12,22
	c-2.68-2.28-4.69-4.4-6.01-6.36S4,11.87,4,10.2c0-2.5,0.8-4.49,2.41-5.97S9.88,2,12,2s3.98,0.74,5.59,2.23S20,7.7,20,10.2
	c0,1.67-0.66,3.48-1.99,5.44C16.69,17.6,14.68,19.72,12,22z"/>
</svg>
